<svg width="159" height="30" viewBox="0 0 159 30" fill="none" xmlns="http://www.w3.org/2000/svg">
<path d="M3.97613 3.29559C6.13031 1.33372 9.0554 0.188585 12.02 0.0461529C13.0347 0.0461529 14.0524 0.0519279 15.067 0.0432129C15.0152 1.08088 15.067 2.12137 15.0365 3.15898C14.8934 5.47838 13.9944 7.74544 12.4801 9.56488C10.5118 12.0122 7.50146 13.6543 4.3052 14.0787C2.9097 14.2938 1.49283 14.1572 0.0882451 14.195C0.112605 13.0527 0.0364274 11.9076 0.130875 10.7682C0.405135 7.9431 1.80368 5.23714 3.97613 3.29559Z" fill="#81818B"/>
<path d="M16.0066 0.0432129C17.0944 0.0548679 18.1821 0.0374383 19.2729 0.0490408C21.9877 0.232108 24.666 1.22614 26.7103 2.94977C28.965 4.79536 30.5101 7.43448 30.906 10.2538C31.0797 11.5617 30.97 12.8841 31.0372 14.1978C30.0864 14.195 29.1388 14.1921 28.188 14.1978C25.8513 14.1368 23.5539 13.416 21.5977 12.2011C20.6958 11.5849 19.7695 10.9601 19.0931 10.1055C17.6093 8.52438 16.6008 6.53925 16.2199 4.4466C15.9334 2.99329 16.0492 1.51101 16.0066 0.0432129Z" fill="#81818B"/>
<path d="M0.090301 15.0291C1.0562 15.0813 2.02514 14.9854 2.98793 15.0872C7.11044 15.1714 11.1111 17.3804 13.247 20.7432C14.4719 22.6266 15.13 24.8589 15.0447 27.0763C15.0416 27.8035 15.0539 28.5269 15.0325 29.2509C13.5029 29.2068 11.9581 29.326 10.4438 29.044C7.07999 28.5038 3.98738 26.5939 2.12562 23.8677C0.714894 21.8854 0.0110782 19.4644 0.0842107 17.0723C0.0842107 16.3892 0.084211 15.7091 0.090301 15.0291Z" fill="#81818B"/>
<path d="M25.8889 15.337C27.5465 14.9853 29.2554 15.0434 30.9406 15.0434L31.0141 15.1132C30.9774 16.6333 31.1023 18.1708 30.7826 19.6735C30.109 23.045 27.7691 26.0559 24.6214 27.7097C22.6623 28.7506 20.4136 29.2619 18.1741 29.2388C17.4581 29.242 16.739 29.2273 16.023 29.2472C16.023 27.9888 15.9681 26.7248 16.1174 25.4717C16.4648 22.4404 18.1833 19.6182 20.6543 17.7116C22.1839 16.5606 23.9816 15.7265 25.8889 15.337Z" fill="#81818B"/>
<path d="M43.5223 23.6211C43.5223 24.1328 43.3364 24.5657 42.9658 24.92C42.6145 25.2547 42.1709 25.422 41.6349 25.422C41.1188 25.422 40.6857 25.2547 40.335 24.92C39.9843 24.5657 39.8089 24.1328 39.8089 23.6211V5.37753C39.8089 4.86581 39.9843 4.44272 40.335 4.10819C40.7062 3.75392 41.1603 3.57678 41.6968 3.57678C42.2329 3.57678 42.666 3.75392 42.9962 4.10819C43.3469 4.44272 43.5223 4.86581 43.5223 5.37753V23.6211Z" fill="#81818B"/>
<path d="M58.4281 9.62842C58.9641 9.62842 59.4077 9.8055 59.7589 10.1598C60.1091 10.4943 60.2845 10.9174 60.2845 11.4291V18.9273C60.2845 21.0134 59.676 22.6665 58.459 23.8867C57.2415 25.1069 55.488 25.7168 53.1975 25.7168C50.9079 25.7168 49.1539 25.1069 47.937 23.8867C46.7405 22.6665 46.142 21.0134 46.142 18.9273V11.4291C46.142 10.9174 46.3173 10.4943 46.668 10.1598C47.0187 9.8055 47.4624 9.62842 47.9989 9.62842C48.5355 9.62842 48.9786 9.8055 49.3293 10.1598C49.6805 10.4943 49.8559 10.9174 49.8559 11.4291V18.9273C49.8559 20.1278 50.1346 21.0232 50.6911 21.6136C51.2482 22.1844 52.0839 22.4697 53.1975 22.4697C54.333 22.4697 55.1783 22.1844 55.7359 21.6136C56.2924 21.0232 56.5711 20.1278 56.5711 18.9273V11.4291C56.5711 10.9174 56.7465 10.4943 57.0972 10.1598C57.4479 9.8055 57.8915 9.62842 58.4281 9.62842Z" fill="#81818B"/>
<path d="M71.4538 9.33325C73.1044 9.33325 74.3214 9.71698 75.1057 10.4845C75.8895 11.2324 76.4056 12.2065 76.6529 13.407L76.1268 13.1413L76.3746 12.669C76.6219 12.2163 77.0036 11.7342 77.5197 11.2225C78.0352 10.6912 78.6542 10.2484 79.3761 9.89411C80.119 9.52015 80.9442 9.33325 81.852 9.33325C83.3377 9.33325 84.4617 9.63828 85.2251 10.2483C86.0094 10.8584 86.5455 11.6752 86.8342 12.6986C87.1235 13.7022 87.2679 14.824 87.2679 16.0639V23.6211C87.2679 24.1328 87.0925 24.5656 86.7413 24.92C86.3906 25.2547 85.9475 25.422 85.4109 25.422C84.8749 25.422 84.4308 25.2547 84.0801 24.92C83.7294 24.5656 83.554 24.1328 83.554 23.6211V16.0639C83.554 15.4144 83.4716 14.8339 83.3068 14.3221C83.1414 13.7908 82.8421 13.3677 82.409 13.0528C81.9759 12.7379 81.3569 12.5804 80.5526 12.5804C79.7682 12.5804 79.0978 12.7379 78.5408 13.0528C77.9832 13.3677 77.5606 13.7908 77.2719 14.3221C77.0036 14.8339 76.8692 15.4144 76.8692 16.0639V23.6211C76.8692 24.1328 76.6939 24.5656 76.3437 24.92C75.993 25.2547 75.5488 25.422 75.0128 25.422C74.4762 25.422 74.0326 25.2547 73.6824 24.92C73.3312 24.5656 73.1559 24.1328 73.1559 23.6211V16.0639C73.1559 15.4144 73.0734 14.8339 72.9081 14.3221C72.7432 13.7908 72.444 13.3677 72.0108 13.0528C71.5777 12.7379 70.9582 12.5804 70.1539 12.5804C69.3701 12.5804 68.6997 12.7379 68.1421 13.0528C67.5856 13.3677 67.1625 13.7908 66.8737 14.3221C66.6054 14.8339 66.4716 15.4144 66.4716 16.0639V23.6211C66.4716 24.1328 66.2962 24.5656 65.9455 24.92C65.5943 25.2547 65.1512 25.422 64.6146 25.422C64.0781 25.422 63.635 25.2547 63.2838 24.92C62.9331 24.5656 62.7577 24.1328 62.7577 23.6211V11.4292C62.7577 10.9175 62.9331 10.4943 63.2838 10.1598C63.635 9.80554 64.0781 9.62846 64.6146 9.62846C65.1512 9.62846 65.5943 9.80554 65.9455 10.1598C66.2962 10.4943 66.4716 10.9175 66.4716 11.4292V12.6986L66.0069 12.61C66.1928 12.2754 66.4511 11.9211 66.7808 11.5472C67.111 11.1536 67.5132 10.7895 67.9878 10.455C68.4624 10.1204 68.9884 9.85473 69.5659 9.65791C70.1439 9.44145 70.7734 9.33325 71.4538 9.33325Z" fill="#81818B"/>
<path d="M93.2366 23.6211C93.2366 24.1328 93.0612 24.5656 92.71 24.92C92.3598 25.2547 91.9162 25.422 91.3797 25.422C90.8436 25.422 90.3995 25.2547 90.0488 24.92C89.6986 24.5656 89.5233 24.1328 89.5233 23.6211V11.4292C89.5233 10.9175 89.6986 10.4943 90.0488 10.1598C90.3995 9.80555 90.8436 9.62846 91.3797 9.62846C91.9162 9.62846 92.3598 9.80555 92.71 10.1598C93.0612 10.4943 93.2366 10.9175 93.2366 11.4292V23.6211ZM91.3487 7.70959C90.6473 7.70959 90.1522 7.60139 89.8629 7.38488C89.5747 7.16842 89.4303 6.78464 89.4303 6.2336V5.67269C89.4303 5.10202 89.5852 4.71819 89.8939 4.52142C90.2241 4.30491 90.7197 4.19666 91.3797 4.19666C92.1021 4.19666 92.6076 4.30491 92.8959 4.52142C93.1851 4.73788 93.3295 5.12165 93.3295 5.67269V6.2336C93.3295 6.80433 93.1746 7.19792 92.8649 7.41438C92.5562 7.6112 92.0501 7.70959 91.3487 7.70959Z" fill="#81818B"/>
<path d="M104.357 9.33325C105.883 9.33325 107.039 9.63828 107.823 10.2483C108.627 10.8584 109.174 11.6752 109.463 12.6986C109.773 13.7022 109.927 14.824 109.927 16.0639V23.6211C109.927 24.1328 109.752 24.5656 109.401 24.92C109.05 25.2547 108.606 25.422 108.07 25.422C107.534 25.422 107.09 25.2547 106.74 24.92C106.388 24.5656 106.213 24.1328 106.213 23.6211V16.0639C106.213 15.4144 106.121 14.8339 105.935 14.3221C105.77 13.7908 105.46 13.3677 105.006 13.0528C104.553 12.7379 103.902 12.5804 103.057 12.5804C102.231 12.5804 101.53 12.7379 100.953 13.0528C100.395 13.3677 99.9624 13.7908 99.6526 14.3221C99.3639 14.8339 99.219 15.4144 99.219 16.0639V23.6211C99.219 24.1328 99.0441 24.5656 98.6934 24.92C98.3427 25.2547 97.8986 25.422 97.3626 25.422C96.826 25.422 96.3824 25.2547 96.0322 24.92C95.681 24.5656 95.5056 24.1328 95.5056 23.6211V11.4292C95.5056 10.9175 95.681 10.4943 96.0322 10.1598C96.3824 9.80554 96.826 9.62846 97.3626 9.62846C97.8986 9.62846 98.3427 9.80554 98.6934 10.1598C99.0441 10.4943 99.219 10.9175 99.219 11.4292V12.6986L98.7554 12.61C98.9412 12.2754 99.209 11.9211 99.5597 11.5472C99.9104 11.1536 100.324 10.7895 100.798 10.455C101.272 10.1204 101.809 9.85473 102.407 9.65791C103.005 9.44145 103.655 9.33325 104.357 9.33325Z" fill="#81818B"/>
<path d="M128.3 17.5398C128.3 19.1536 127.919 20.5805 127.155 21.8203C126.412 23.0405 125.402 23.995 124.122 24.6837C122.864 25.3728 121.451 25.7168 119.883 25.7168C118.315 25.7168 116.891 25.3728 115.612 24.6837C114.354 23.995 113.343 23.0405 112.579 21.8203C111.837 20.5805 111.465 19.1536 111.465 17.5398C111.465 15.9261 111.837 14.5091 112.579 13.2889C113.343 12.0491 114.354 11.0848 115.612 10.396C116.891 9.68747 118.315 9.33325 119.883 9.33325C121.451 9.33325 122.864 9.68747 124.122 10.396C125.402 11.0848 126.412 12.0491 127.155 13.2889C127.919 14.5091 128.3 15.9261 128.3 17.5398ZM124.587 17.5398C124.587 16.5362 124.37 15.6703 123.936 14.9421C123.524 14.1942 122.957 13.6137 122.234 13.2004C121.534 12.7871 120.749 12.5804 119.883 12.5804C119.016 12.5804 118.222 12.7871 117.5 13.2004C116.798 13.6137 116.231 14.1942 115.798 14.9421C115.385 15.6703 115.178 16.5362 115.178 17.5398C115.178 18.5239 115.385 19.3898 115.798 20.1377C116.231 20.8658 116.798 21.4365 117.5 21.8498C118.222 22.2632 119.016 22.4697 119.883 22.4697C120.749 22.4697 121.534 22.2632 122.234 21.8498C122.957 21.4365 123.524 20.8658 123.936 20.1377C124.37 19.3898 124.587 18.5239 124.587 17.5398Z" fill="#81818B"/>
<path d="M142.141 9.62842C142.678 9.62842 143.122 9.8055 143.472 10.1598C143.823 10.4943 143.998 10.9174 143.998 11.4291V18.9273C143.998 21.0134 143.39 22.6665 142.172 23.8867C140.955 25.1069 139.202 25.7168 136.911 25.7168C134.621 25.7168 132.868 25.1069 131.65 23.8867C130.454 22.6665 129.855 21.0134 129.855 18.9273V11.4291C129.855 10.9174 130.031 10.4943 130.382 10.1598C130.733 9.8055 131.176 9.62842 131.712 9.62842C132.249 9.62842 132.692 9.8055 133.043 10.1598C133.394 10.4943 133.569 10.9174 133.569 11.4291V18.9273C133.569 20.1278 133.847 21.0232 134.405 21.6136C134.962 22.1844 135.797 22.4697 136.911 22.4697C138.046 22.4697 138.892 22.1844 139.449 21.6136C140.006 21.0232 140.285 20.1278 140.285 18.9273V11.4291C140.285 10.9174 140.46 10.4943 140.811 10.1598C141.161 9.8055 141.605 9.62842 142.141 9.62842Z" fill="#81818B"/>
<path d="M145.512 22.9716C145.306 22.6961 145.213 22.3419 145.234 21.9089C145.254 21.4759 145.522 21.102 146.038 20.7871C146.368 20.5903 146.719 20.5116 147.091 20.551C147.461 20.5707 147.822 20.7477 148.174 21.0823C148.772 21.653 149.401 22.0958 150.062 22.4107C150.721 22.7256 151.547 22.883 152.537 22.883C152.847 22.8633 153.186 22.824 153.558 22.765C153.93 22.6863 154.249 22.5288 154.517 22.2927C154.806 22.0368 154.951 21.653 154.951 21.1413C154.951 20.7084 154.796 20.364 154.486 20.1081C154.177 19.8523 153.764 19.6359 153.248 19.4587C152.754 19.2816 152.196 19.1143 151.578 18.9569C150.938 18.7797 150.277 18.583 149.597 18.3665C148.936 18.15 148.328 17.8745 147.771 17.5398C147.214 17.1856 146.76 16.7232 146.409 16.1524C146.059 15.5817 145.884 14.8633 145.884 13.9975C145.884 13.0134 146.172 12.177 146.75 11.4882C147.328 10.7994 148.07 10.2681 148.978 9.89411C149.907 9.52015 150.876 9.33325 151.887 9.33325C152.526 9.33325 153.197 9.41195 153.899 9.5694C154.6 9.70716 155.271 9.9433 155.91 10.2779C156.549 10.5927 157.086 11.0159 157.519 11.5472C157.746 11.8424 157.88 12.1967 157.922 12.61C157.963 13.0233 157.767 13.3972 157.333 13.7318C157.025 13.9679 156.663 14.0762 156.25 14.0565C155.838 14.0171 155.497 13.8794 155.229 13.6432C154.878 13.2102 154.404 12.8658 153.806 12.61C153.228 12.3542 152.557 12.2262 151.794 12.2262C151.485 12.2262 151.145 12.2656 150.773 12.3443C150.422 12.4033 150.113 12.551 149.845 12.7871C149.576 13.0036 149.442 13.3578 149.442 13.8498C149.442 14.3025 149.597 14.6666 149.907 14.9421C150.216 15.1979 150.629 15.4144 151.145 15.5916C151.681 15.749 152.248 15.9065 152.847 16.0639C153.465 16.2213 154.095 16.4083 154.734 16.6247C155.374 16.8413 155.961 17.1266 156.498 17.4808C157.035 17.8351 157.468 18.2976 157.798 18.8683C158.128 19.4193 158.293 20.1278 158.293 20.9938C158.293 21.9975 157.984 22.8536 157.364 23.562C156.746 24.2706 155.972 24.8117 155.044 25.1857C154.115 25.5401 153.166 25.7168 152.196 25.7168C150.979 25.7168 149.762 25.5204 148.545 25.1267C147.328 24.7132 146.316 23.995 145.512 22.9716Z" fill="#81818B"/>
</svg>
