<svg width="164" height="35" viewBox="0 0 164 35" fill="none" xmlns="http://www.w3.org/2000/svg">
<path d="M0.274414 23.3943L11.934 18.3411L18.645 22.1308L20.0008 34.564L11.7306 34.4979L12.9508 25.8539L11.5273 25.0561L4.54503 30.3753L0.274414 23.3943Z" fill="#81818B"/>
<path d="M19.3911 21.5985L29.6951 28.9783L33.7621 21.8645L25.4919 18.6066V17.0109L33.7621 13.6866L29.6951 6.63892L19.3911 14.019V21.5985Z" fill="#81818B"/>
<path d="M18.645 13.4209L20.0008 0.987793L11.7306 1.12078L12.9508 9.76406L11.5273 10.5619L4.47725 5.24297L0.274414 12.1576L11.934 17.2107L18.645 13.4209Z" fill="#81818B"/>
<path d="M61.353 16.2858V27.934H65.8039V13.0895H59.3223V16.2858H61.353Z" fill="#81818B"/>
<path d="M61.2139 11.0038C61.6218 11.4191 62.2434 11.6267 63.0776 11.6267C63.9129 11.6267 64.5245 11.4191 64.9135 11.0038C65.322 10.5702 65.5257 10.0284 65.5257 9.37848C65.5257 8.71021 65.322 8.16846 64.9135 7.75319C64.5245 7.3198 63.9129 7.10303 63.0776 7.10303C62.2434 7.10303 61.6218 7.3198 61.2139 7.75319C60.8248 8.16846 60.6301 8.71021 60.6301 9.37848C60.6301 10.0284 60.8248 10.5702 61.2139 11.0038Z" fill="#81818B"/>
<path d="M45.8581 27.6087C47.1192 28.1685 48.6674 28.4486 50.5033 28.4486C52.2285 28.4486 53.7116 28.1864 54.9548 27.6629C56.1975 27.1393 57.1525 26.4078 57.8197 25.4686C58.5064 24.5115 58.8493 23.401 58.8493 22.1368C58.8493 20.9089 58.5253 19.8705 57.8759 19.0216C57.2449 18.1549 56.3644 17.4777 55.2331 16.9902C54.1017 16.4844 52.7939 16.1684 51.3103 16.0422L49.7526 15.9067C48.8254 15.8343 48.1576 15.5907 47.7497 15.1752C47.3413 14.7599 47.1376 14.2722 47.1376 13.7126C47.1376 13.279 47.2494 12.8818 47.4709 12.5206C47.6941 12.1414 48.0274 11.8434 48.4726 11.6266C48.9367 11.4101 49.5022 11.3017 50.17 11.3017C50.8745 11.3017 51.4588 11.4279 51.9224 11.6809C52.0243 11.7344 52.1214 11.7915 52.2122 11.8521L52.2342 11.8672C52.2684 11.8901 52.302 11.9139 52.3345 11.9379C52.6165 12.1474 52.8406 12.3959 53.0076 12.6832C53.248 13.0805 53.3693 13.5228 53.3693 14.0105H57.8197C57.8197 12.7101 57.5137 11.5815 56.902 10.6245C56.2904 9.64928 55.4095 8.8999 54.2597 8.376C53.1278 7.83425 51.7649 7.56335 50.17 7.56335C48.649 7.56335 47.3323 7.81635 46.2193 8.32193C45.1068 8.8096 44.2354 9.51383 43.6048 10.4347C42.9922 11.3557 42.6861 12.4484 42.6861 13.7126C42.6861 15.4642 43.2893 16.8727 44.4947 17.9383C45.7001 19.0037 47.3139 19.6177 49.3352 19.7802L50.8656 19.9157C52.1077 20.0241 53.0076 20.2679 53.5641 20.6469C54.1201 21.0081 54.3983 21.5047 54.3983 22.1368C54.3983 22.4273 54.3495 22.6997 54.2518 22.9543C54.1794 23.1433 54.0796 23.3222 53.9536 23.4913C53.656 23.8703 53.2207 24.1683 52.6458 24.3854C52.071 24.6019 51.357 24.7102 50.5033 24.7102C49.5578 24.7102 48.7881 24.584 48.1949 24.3308C47.6011 24.0601 47.1565 23.7079 46.8588 23.2748C46.5811 22.8411 46.4425 22.3717 46.4425 21.8659H42.0188C42.0188 23.1481 42.3433 24.286 42.9922 25.2789C43.6416 26.2543 44.5965 27.0311 45.8581 27.6087Z" fill="#81818B"/>
<path d="M75.7353 28.1233C74.1955 28.1233 72.9534 27.943 72.0073 27.5815C71.0613 27.2025 70.3662 26.5792 69.921 25.7125C69.4947 24.8275 69.281 23.6359 69.281 22.1368V16.2587H66.972V13.0895H69.281V9.08057H73.4259V13.0895H77.8773V16.2587H73.4259V22.2996C73.4259 23.0038 73.6117 23.5455 73.9824 23.9245C74.3719 24.286 74.919 24.4664 75.624 24.4664H77.8773V28.1233H75.7353Z" fill="#81818B"/>
<path fill-rule="evenodd" clip-rule="evenodd" d="M83.2366 27.7984C84.2377 28.2316 85.388 28.4486 86.6858 28.4486C87.9652 28.4486 89.0971 28.2316 90.0799 27.7984C91.0627 27.3648 91.8791 26.7599 92.528 25.9836C93.1769 25.2068 93.6132 24.3218 93.8353 23.3289H89.746C89.5607 23.7804 89.2084 24.1594 88.6892 24.4663C88.17 24.7733 87.5017 24.9272 86.6858 24.9272C86.1802 24.9272 85.7287 24.8686 85.3308 24.7522C85.0279 24.6637 84.7564 24.5415 84.516 24.3854C83.9595 24.0243 83.5516 23.5182 83.2917 22.8683C83.2198 22.6832 83.1583 22.4895 83.1064 22.2878C83.0533 22.0834 83.0108 21.8708 82.9788 21.6494H94.1135V20.1865C94.1135 18.8321 93.8169 17.5861 93.2236 16.4485C92.6299 15.2925 91.7673 14.3625 90.6364 13.6583C89.5234 12.9359 88.1511 12.5747 86.5189 12.5747C85.2762 12.5747 84.1632 12.7915 83.1804 13.2249C82.2165 13.6402 81.4096 14.209 80.7607 14.9314C80.1118 15.6537 79.6109 16.4756 79.2576 17.3966C78.9242 18.2993 78.7573 19.2474 78.7573 20.2407V20.7824C78.7573 21.7397 78.9242 22.6786 79.2576 23.5997C79.6109 24.5026 80.1118 25.3241 80.7607 26.0646C81.4279 26.7872 82.2527 27.3648 83.2366 27.7984ZM83.0554 18.9708C83.0675 18.9135 83.0806 18.857 83.0948 18.8014C83.1337 18.6483 83.1778 18.5015 83.2287 18.3613C83.257 18.2814 83.2875 18.2035 83.32 18.1278C83.5978 17.4596 84.0062 16.954 84.5438 16.611C84.7449 16.4827 84.9628 16.3784 85.1964 16.2982C85.5901 16.1636 86.0311 16.0963 86.5189 16.0963C87.2796 16.0963 87.9096 16.2679 88.4104 16.611C88.9297 16.9359 89.3192 17.4145 89.5791 18.0465C89.6001 18.0975 89.62 18.1495 89.6395 18.202C89.6699 18.2858 89.6988 18.3717 89.725 18.4598C89.7644 18.5909 89.7985 18.7266 89.829 18.8668C89.851 18.9702 89.8699 19.076 89.8867 19.1844H83.0124C83.0255 19.112 83.0397 19.0409 83.0554 18.9708Z" fill="#81818B"/>
<path d="M95.9504 27.934V13.0895H99.4837V16.8282C99.5315 16.6059 99.5861 16.3926 99.647 16.1881C99.6995 16.0157 99.7556 15.8495 99.8171 15.6899C100.207 14.6785 100.791 13.9202 101.57 13.4144C102.349 12.8907 103.304 12.629 104.435 12.629H104.63C105.78 12.629 106.734 12.8907 107.495 13.4144C108.274 13.9202 108.859 14.6785 109.248 15.6899L109.279 15.7662L109.305 15.836C109.322 15.7867 109.341 15.7381 109.359 15.6899C109.767 14.6785 110.361 13.9202 111.14 13.4144C111.918 12.8907 112.874 12.629 114.005 12.629H114.2C115.349 12.629 116.314 12.8907 117.093 13.4144C117.89 13.9202 118.493 14.6785 118.901 15.6899C119.309 16.7012 119.514 17.9654 119.514 19.4823V27.934H115.062V19.2384C115.062 18.4258 114.839 17.7667 114.394 17.2611C113.968 16.7553 113.356 16.5025 112.559 16.5025C111.761 16.5025 111.13 16.7645 110.667 17.2881C110.203 17.7937 109.971 18.4709 109.971 19.3198V27.934H105.492V19.2384C105.492 18.4258 105.27 17.7667 104.825 17.2611C104.398 16.7553 103.795 16.5025 103.017 16.5025C102.2 16.5025 101.561 16.7645 101.097 17.2881C100.633 17.7937 100.401 18.4709 100.401 19.3198V27.934H95.9504Z" fill="#81818B"/>
<path fill-rule="evenodd" clip-rule="evenodd" d="M131.403 25.0736V27.9341H134.936V18.8322C134.936 17.4597 134.658 16.3402 134.101 15.4732C133.545 14.5883 132.729 13.9293 131.654 13.4959C130.597 13.0625 129.289 12.8457 127.731 12.8457C127.393 12.8457 127.041 12.8492 126.673 12.8564C126.456 12.8608 126.233 12.8662 126.006 12.8728C125.394 12.8909 124.8 12.9179 124.226 12.9541L123.786 12.9829C123.561 12.9982 123.349 13.0132 123.15 13.0285C123 13.0398 122.858 13.0512 122.724 13.0625V16.7195C123.299 16.6832 123.938 16.6471 124.643 16.6111C124.84 16.601 125.035 16.5916 125.229 16.5829C125.51 16.5703 125.786 16.5593 126.059 16.5498C126.275 16.5421 126.489 16.5353 126.702 16.5297C127.369 16.5116 127.907 16.5026 128.315 16.5026C129.131 16.5026 129.724 16.6922 130.096 17.0715C130.467 17.4507 130.652 18.0196 130.652 18.7782V18.8322H127.898C126.544 18.8322 125.348 19.0038 124.309 19.347C123.27 19.672 122.463 20.1866 121.889 20.8909C121.314 21.5773 121.027 22.4621 121.027 23.5456C121.027 24.5389 121.258 25.3967 121.722 26.1193C122.186 26.8231 122.825 27.3649 123.641 27.7439C124.476 28.1234 125.441 28.3131 126.534 28.3131C127.592 28.3131 128.482 28.1234 129.206 27.7439C129.947 27.3649 130.522 26.8231 130.93 26.1193C131.002 26.0003 131.069 25.8772 131.131 25.7493C131.219 25.5685 131.298 25.3783 131.367 25.1787L131.403 25.0736ZM130.652 22.4351V21.2431H127.87C127.091 21.2431 126.489 21.4327 126.062 21.812C125.654 22.1732 125.45 22.6698 125.45 23.3018C125.45 23.5993 125.501 23.8696 125.602 24.1134C125.704 24.3577 125.858 24.5747 126.062 24.7644C126.489 25.126 127.091 25.3063 127.87 25.3063C128.018 25.3063 128.162 25.2991 128.3 25.2853C128.413 25.2736 128.523 25.2571 128.629 25.236C128.833 25.1958 129.025 25.1376 129.206 25.0624C129.613 24.8821 129.947 24.5841 130.207 24.1684C130.467 23.7532 130.615 23.1751 130.652 22.4351Z" fill="#81818B"/>
<path d="M137.6 27.9341V13.0895H141.133V17.9892C141.302 16.5905 141.729 15.4627 142.412 14.6065C143.34 13.4689 144.675 12.9 146.419 12.9H147.003V16.6381H145.89C144.666 16.6381 143.72 16.9631 143.052 17.6132C142.385 18.2453 142.051 19.1664 142.051 20.3761V27.9341H137.6Z" fill="#81818B"/>
<path d="M152.647 20.9993H154.122L158.934 27.9341H163.942L157.839 19.4174L162.856 13.0896H158.183L152.647 20.1478V8.15955H148.196V27.9341H152.647V20.9993Z" fill="#81818B"/>
</svg>
