<svg width="167" height="39" viewBox="0 0 167 39" fill="none" xmlns="http://www.w3.org/2000/svg">
<path d="M49.3487 10.8004C50.9363 10.8004 52.3102 11.0559 53.471 11.567C54.6486 12.0781 55.5526 12.8034 56.1842 13.7432C56.8158 14.6829 57.1318 15.7957 57.1318 17.0816C57.1318 18.351 56.8158 19.4638 56.1842 20.42C55.5526 21.3597 54.6486 22.0851 53.471 22.5964C52.3102 23.0907 50.9363 23.3381 49.3487 23.3381H45.7393V28.1109H41.5923V10.8004H49.3487ZM49.1187 20.0738C50.364 20.0738 51.3117 19.8183 51.96 19.3072C52.6089 18.7796 52.9329 18.0378 52.9329 17.0816C52.9329 16.1089 52.6089 15.367 51.96 14.856C51.3117 14.3284 50.364 14.0647 49.1187 14.0647H45.7393V20.0738H49.1187Z" fill="#81818B"/>
<path d="M62.3456 16.5623C62.8228 15.9194 63.4633 15.433 64.265 15.1033C65.0845 14.7736 66.0227 14.6088 67.0811 14.6088V18.1697C66.6375 18.1368 66.3387 18.1203 66.1849 18.1203C65.0415 18.1203 64.1458 18.4335 63.4974 19.06C62.8485 19.6699 62.5241 20.5932 62.5241 21.8296V28.111H58.5309V14.8066H62.3456V16.5623Z" fill="#81818B"/>
<path d="M74.6044 28.3085C73.1538 28.3085 71.8481 28.0203 70.6879 27.4431C69.5444 26.8498 68.6482 26.0334 67.9999 24.9948C67.3515 23.9562 67.027 22.7774 67.027 21.4587C67.027 20.1398 67.3515 18.9611 67.9999 17.9224C68.6482 16.8838 69.5444 16.076 70.6879 15.499C71.8481 14.9055 73.1538 14.6088 74.6044 14.6088C76.0549 14.6088 77.3522 14.9055 78.4957 15.499C79.6391 16.076 80.5353 16.8838 81.1842 17.9224C81.832 18.9611 82.1565 20.1398 82.1565 21.4587C82.1565 22.7774 81.832 23.9562 81.1842 24.9948C80.5353 26.0334 79.6391 26.8498 78.4957 27.4431C77.3522 28.0203 76.0549 28.3085 74.6044 28.3085ZM74.6044 25.1432C75.6286 25.1432 76.465 24.8138 77.1133 24.1541C77.779 23.4783 78.1114 22.5799 78.1114 21.4587C78.1114 20.3377 77.779 19.4474 77.1133 18.7879C76.465 18.112 75.6286 17.774 74.6044 17.774C73.5806 17.774 72.7359 18.112 72.0702 18.7879C71.4045 19.4474 71.0716 20.3377 71.0716 21.4587C71.0716 22.5799 71.4045 23.4783 72.0702 24.1541C72.7359 24.8138 73.5806 25.1432 74.6044 25.1432Z" fill="#81818B"/>
<path d="M100.263 10.8004V28.1109H96.8586L87.9236 17.6009V28.1109H83.8276V10.8004H87.2579L96.1672 21.3103V10.8004H100.263Z" fill="#81818B"/>
<path d="M108.497 14.6088C110.63 14.6088 112.268 15.1033 113.412 16.0925C114.555 17.0652 115.127 18.5407 115.127 20.519V28.111H111.39V26.4539C110.639 27.6905 109.239 28.3085 107.191 28.3085C106.133 28.3085 105.211 28.1357 104.426 27.7894C103.658 27.4431 103.069 26.9652 102.66 26.355C102.25 25.7452 102.045 25.0525 102.045 24.2778C102.045 23.0413 102.523 22.0687 103.479 21.3598C104.452 20.6509 105.945 20.2965 107.959 20.2965H111.133C111.133 19.4556 110.869 18.8127 110.34 18.3676C109.81 17.9059 109.017 17.6751 107.959 17.6751C107.225 17.6751 106.5 17.7905 105.783 18.0214C105.083 18.2357 104.486 18.5325 103.991 18.9116L102.557 16.2161C103.308 15.7051 104.204 15.3094 105.245 15.0291C106.303 14.7489 107.387 14.6088 108.497 14.6088ZM108.19 25.7122C108.872 25.7122 109.478 25.5638 110.007 25.2669C110.536 24.9536 110.911 24.5004 111.133 23.9067V22.547H108.394C106.756 22.547 105.936 23.066 105.936 24.1047C105.936 24.5994 106.133 24.9948 106.525 25.2917C106.935 25.572 107.489 25.7122 108.19 25.7122Z" fill="#81818B"/>
<path d="M126.345 27.4678C125.953 27.7481 125.466 27.9625 124.886 28.1109C124.322 28.2425 123.725 28.3084 123.093 28.3084C121.455 28.3084 120.184 27.9048 119.279 27.0971C118.391 26.289 117.948 25.102 117.948 23.536V18.0708H115.823V15.1033H117.948V11.8638H121.942V15.1033H125.372V18.0708H121.942V23.4865C121.942 24.0469 122.086 24.4839 122.377 24.7972C122.684 25.0937 123.111 25.2421 123.657 25.2421C124.288 25.2421 124.826 25.0772 125.27 24.7478L126.345 27.4678Z" fill="#81818B"/>
<path d="M141.182 14.8066V28.111H137.393V26.5282C136.864 27.105 136.233 27.5503 135.499 27.8637C134.765 28.1605 133.971 28.3085 133.118 28.3085C131.309 28.3085 129.875 27.806 128.817 26.8003C127.759 25.7947 127.23 24.3026 127.23 22.3244V14.8066H131.224V21.7554C131.224 23.8985 132.154 24.9701 134.014 24.9701C134.969 24.9701 135.738 24.6737 136.318 24.0799C136.898 23.4701 137.188 22.5718 137.188 21.3846V14.8066H141.182Z" fill="#81818B"/>
<path d="M147.416 16.5623C147.894 15.9194 148.534 15.433 149.336 15.1033C150.155 14.7736 151.094 14.6088 152.153 14.6088V18.1697C151.709 18.1368 151.41 18.1203 151.256 18.1203C150.113 18.1203 149.217 18.4335 148.568 19.06C147.92 19.6699 147.596 20.5932 147.596 21.8296V28.111H143.602V14.8066H147.416V16.5623Z" fill="#81818B"/>
<path d="M166.613 21.5084C166.613 21.5574 166.588 21.9037 166.537 22.547H156.117C156.305 23.3712 156.748 24.0222 157.448 24.5004C158.148 24.9783 159.019 25.2174 160.06 25.2174C160.776 25.2174 161.408 25.1185 161.954 24.9206C162.517 24.7066 163.038 24.3768 163.515 23.9315L165.64 26.1571C164.344 27.5915 162.449 28.3085 159.957 28.3085C158.404 28.3085 157.03 28.0203 155.836 27.4431C154.641 26.8498 153.719 26.0334 153.07 24.9948C152.422 23.9562 152.098 22.7774 152.098 21.4587C152.098 20.1563 152.414 18.9858 153.045 17.9472C153.694 16.892 154.572 16.076 155.682 15.499C156.808 14.9055 158.063 14.6088 159.445 14.6088C160.794 14.6088 162.014 14.889 163.106 15.4495C164.198 16.01 165.051 16.8179 165.666 17.873C166.298 18.9116 166.613 20.1233 166.613 21.5084ZM159.471 17.5268C158.567 17.5268 157.806 17.774 157.193 18.2686C156.578 18.7633 156.202 19.4392 156.066 20.2965H162.85C162.714 19.4556 162.338 18.7879 161.723 18.2934C161.109 17.7823 160.358 17.5268 159.471 17.5268Z" fill="#81818B"/>
<path fill-rule="evenodd" clip-rule="evenodd" d="M18.8485 1.16018C18.2401 0.820141 17.4898 0.820141 16.8813 1.16018C12.5593 3.57524 9.64424 8.09386 9.64424 13.2725C9.64424 14.0105 9.70351 14.7352 9.81754 15.4423C6.84231 14.4663 3.62081 14.8214 0.989509 16.286C0.380457 16.6251 0.0052912 17.2526 0.0059212 17.9317C0.0090187 21.5141 1.93556 25.0055 5.38586 26.9297C7.07856 27.8739 8.92609 28.3225 10.7485 28.3233C10.4712 29.0824 10.3203 29.8987 10.3203 30.7493C10.3203 34.7743 13.6981 38.0366 17.8646 38.0366C22.0314 38.0366 25.4089 34.7743 25.4089 30.7493C25.4089 29.8966 25.2574 29.0786 24.9791 28.3184C26.6928 28.266 28.4189 27.8166 30.0084 26.9297C33.4591 25.0055 35.3853 21.5141 35.3879 17.9318C35.389 17.2528 35.0136 16.6252 34.4046 16.2862C31.8773 14.8792 28.8047 14.4961 25.9296 15.3333C26.0325 14.6608 26.0854 13.9727 26.0854 13.2725C26.0854 8.09386 23.1706 3.57524 18.8485 1.16018ZM13.573 13.2725C13.573 9.90963 15.2586 6.92531 17.8649 5.06771C20.4713 6.92531 22.1569 9.90963 22.1569 13.2725C22.1569 16.6352 20.4713 19.6196 17.8649 21.4771C15.2586 19.6196 13.573 16.6352 13.573 13.2725ZM25.6121 19.5744C27.4261 18.5626 29.5223 18.445 31.3533 19.0851C31.0121 20.937 29.8582 22.6315 28.0441 23.6433C26.2301 24.655 24.134 24.7725 22.3029 24.1327C22.6443 22.2806 23.798 20.5861 25.6121 19.5744ZM4.04102 19.085C5.87201 18.4448 7.96812 18.5625 9.78216 19.5742C11.5963 20.5859 12.7498 22.2806 13.0914 24.1322C11.2603 24.7725 9.16428 24.655 7.3502 23.6433C5.53617 22.6315 4.38258 20.9368 4.04102 19.085ZM14.2491 30.7493C14.2491 28.8205 15.8678 27.2567 17.8646 27.2567C19.8615 27.2567 21.4804 28.8205 21.4804 30.7493C21.4804 32.678 19.8615 34.2419 17.8646 34.2419C15.8678 34.2419 14.2491 32.678 14.2491 30.7493Z" fill="#81818B"/>
</svg>
