<svg width="164" height="32" viewBox="0 0 164 32" fill="none" xmlns="http://www.w3.org/2000/svg">
<path d="M52.9871 27.8316C50.6303 27.8316 48.5471 27.3567 46.7375 26.4079C44.9273 25.4371 43.5281 24.0673 42.539 22.2989C41.5505 20.5302 41.0559 18.4487 41.0559 16.0545C41.0559 13.6603 41.5505 11.5789 42.539 9.81019C43.5281 8.01988 44.9273 6.65026 46.7375 5.70117C48.5471 4.73055 50.6303 4.24524 52.9871 4.24524C54.5867 4.24524 55.9964 4.41781 57.217 4.76289C58.4586 5.08645 59.5947 5.6041 60.6258 6.31589V11.0072C59.7002 10.2308 58.6376 9.66996 57.438 9.32482C56.2594 8.95816 54.9128 8.77483 53.3976 8.77483C51.988 8.77483 50.7143 9.07681 49.5782 9.68072C48.4631 10.2631 47.579 11.1043 46.927 12.2043C46.2744 13.3044 45.9484 14.5877 45.9484 16.0545C45.9484 17.5428 46.2429 18.8477 46.832 19.9694C47.4425 21.0694 48.2946 21.9214 49.3887 22.5253C50.4828 23.1293 51.746 23.4313 53.1766 23.4313C54.4812 23.4313 55.6173 23.194 56.5854 22.7195V18.3516H53.0186V14.728H61.2254V25.6314C59.1422 27.098 56.3964 27.8316 52.9871 27.8316Z" fill="#81818B"/>
<path d="M62.3336 11.8161H66.9421V14.0486C67.5526 13.2936 68.4047 12.722 69.4988 12.3338C70.5929 11.924 71.8351 11.7191 73.2237 11.7191V15.4398C71.7715 15.4398 70.4879 15.6663 69.3728 16.1192C68.2782 16.5722 67.5206 17.2624 67.1001 18.1899V27.3463H62.3336V11.8161Z" fill="#81818B"/>
<path d="M82.3833 27.8316C79.479 27.8316 77.1958 27.1195 75.5337 25.6958C73.871 24.2511 73.0399 22.2342 73.0399 19.6458C73.0399 17.079 73.7765 15.0515 75.2496 13.5633C76.7438 12.0749 78.869 11.3308 81.6258 11.3308C83.4354 11.3308 84.9711 11.6759 86.2342 12.3661C87.4963 13.0563 88.4544 14.0162 89.1065 15.2456C89.7591 16.4535 90.0851 17.8232 90.0851 19.3546V21.3282H77.5854C77.9219 23.3127 79.7316 24.305 83.0144 24.305C83.9825 24.305 84.9821 24.2187 86.0132 24.0459C87.0443 23.8734 87.9389 23.6361 88.6965 23.3342V26.764C87.9599 27.0871 87.0128 27.3462 85.8552 27.5405C84.6981 27.7342 83.5404 27.8316 82.3833 27.8316ZM85.5711 18.1575C85.5081 17.1222 85.1291 16.3241 84.435 15.7633C83.7405 15.181 82.7829 14.8897 81.5622 14.8897C80.3631 14.8897 79.416 15.181 78.7215 15.7633C78.0274 16.3457 77.6484 17.1438 77.5854 18.1575H85.5711Z" fill="#81818B"/>
<path d="M99.8549 27.8316C96.9511 27.8316 94.6679 27.1195 93.0052 25.6958C91.3431 24.2511 90.5115 22.2342 90.5115 19.6458C90.5115 17.079 91.248 15.0515 92.7212 13.5633C94.2153 12.0749 96.3406 11.3308 99.0973 11.3308C100.907 11.3308 102.443 11.6759 103.706 12.3661C104.968 13.0563 105.926 14.0162 106.578 15.2456C107.231 16.4535 107.557 17.8232 107.557 19.3546V21.3282H95.0569C95.3935 23.3127 97.2036 24.305 100.486 24.305C101.455 24.305 102.454 24.2187 103.485 24.0459C104.516 23.8734 105.41 23.6361 106.168 23.3342V26.764C105.431 27.0871 104.485 27.3462 103.327 27.5405C102.17 27.7342 101.013 27.8316 99.8549 27.8316ZM103.043 18.1575C102.98 17.1222 102.601 16.3241 101.907 15.7633C101.212 15.181 100.255 14.8897 99.0343 14.8897C97.8347 14.8897 96.8881 15.181 96.1936 15.7633C95.499 16.3457 95.1205 17.1438 95.0569 18.1575H103.043Z" fill="#81818B"/>
<path d="M108.615 11.8161H113.223V13.725C113.918 12.927 114.738 12.3338 115.685 11.9455C116.653 11.5357 117.663 11.3308 118.715 11.3308C120.778 11.3308 122.314 11.9024 123.324 13.0456C124.355 14.1672 124.871 15.6878 124.871 17.6075V27.3462H120.104V18.1575C120.104 16.1516 119.2 15.1486 117.389 15.1486C116.59 15.1486 115.843 15.3535 115.149 15.7633C114.454 16.1516 113.865 16.734 113.381 17.5104V27.3462H108.615V11.8161Z" fill="#81818B"/>
<path d="M129.076 9.42188C128.34 9.42188 127.719 9.17387 127.214 8.67774C126.709 8.18167 126.457 7.55613 126.457 6.80118C126.457 6.06786 126.709 5.45314 127.214 4.95702C127.719 4.43937 128.34 4.18054 129.076 4.18054C129.812 4.18054 130.433 4.43937 130.938 4.95702C131.444 5.45314 131.696 6.06786 131.696 6.80118C131.696 7.55613 131.444 8.18167 130.938 8.67774C130.433 9.17387 129.812 9.42188 129.076 9.42188ZM126.677 11.8161H131.476V27.3462H126.677V11.8161Z" fill="#81818B"/>
<path d="M139.604 27.8316C138.468 27.8316 137.247 27.7018 135.943 27.4431C134.659 27.2059 133.649 26.8608 132.913 26.4079V22.5901C133.754 23.1077 134.764 23.5283 135.943 23.8518C137.121 24.1752 138.216 24.337 139.226 24.337C140.088 24.337 140.72 24.2616 141.119 24.1108C141.519 23.9597 141.719 23.6793 141.719 23.2695C141.719 22.946 141.603 22.6871 141.372 22.493C141.14 22.2773 140.782 22.0939 140.299 21.943C139.836 21.7704 139.057 21.5224 137.963 21.1988C136.679 20.8106 135.669 20.4223 134.933 20.0341C134.217 19.6242 133.67 19.1174 133.292 18.5134C132.934 17.9095 132.755 17.1329 132.755 16.1839C132.755 14.5662 133.375 13.3583 134.617 12.5603C135.879 11.7406 137.584 11.3308 139.731 11.3308C140.782 11.3308 141.866 11.4494 142.982 11.6867C144.118 11.9024 144.991 12.1936 145.602 12.5603V16.281C144.991 15.8712 144.192 15.5368 143.203 15.278C142.235 15.0192 141.288 14.8897 140.362 14.8897C139.499 14.8897 138.826 14.976 138.342 15.1486C137.879 15.3212 137.647 15.6447 137.647 16.1192C137.647 16.529 137.868 16.8418 138.31 17.0575C138.773 17.2732 139.625 17.5428 140.867 17.8664L141.498 18.0281C142.824 18.3948 143.855 18.8046 144.591 19.2576C145.328 19.689 145.843 20.2174 146.138 20.8429C146.454 21.4469 146.612 22.2126 146.612 23.1401C146.612 24.5637 146.012 25.7068 144.813 26.5697C143.613 27.4107 141.877 27.8316 139.604 27.8316Z" fill="#81818B"/>
<path d="M147.713 3.4364H152.48V13.5956C153.195 12.8407 154.006 12.2799 154.91 11.9132C155.815 11.5249 156.783 11.3308 157.814 11.3308C159.877 11.3308 161.413 11.9024 162.423 13.0456C163.454 14.1672 163.969 15.6878 163.969 17.6076V27.3463H159.204V18.1576C159.204 16.1516 158.298 15.1486 156.489 15.1486C155.689 15.1486 154.942 15.3535 154.248 15.7633C153.553 16.1516 152.964 16.734 152.48 17.5104V27.3463H147.713V3.4364Z" fill="#81818B"/>
<path fill-rule="evenodd" clip-rule="evenodd" d="M24.7777 8.01421C24.7777 12.124 21.5276 15.4556 17.518 15.4556C13.5084 15.4556 10.258 12.124 10.258 8.01421C10.258 3.9044 13.5084 0.572754 17.518 0.572754C21.5276 0.572754 24.7777 3.9044 24.7777 8.01421ZM0.630755 14.9148C8.5403 14.3683 15.4337 20.4383 16.0758 28.5628C16.1423 29.4045 16.1391 30.2356 16.0712 31.0504C8.16167 31.5969 1.26826 25.5268 0.626135 17.4024C0.55967 16.5606 0.56282 15.7293 0.630755 14.9148ZM21.1888 30.7659C29.1151 30.1075 35.0368 23.042 34.5039 14.9348C33.7091 14.8651 32.8985 14.8618 32.0768 14.93C24.1505 15.5882 18.2287 22.6539 18.7619 30.7611C19.5566 30.831 20.3674 30.8341 21.1888 30.7659Z" fill="#81818B"/>
</svg>
