<svg width="161" height="35" viewBox="0 0 161 35" fill="none" xmlns="http://www.w3.org/2000/svg">
<path fill-rule="evenodd" clip-rule="evenodd" d="M6.6959 9.23609C9.43624 5.73387 13.8245 3.46493 18.7704 3.46493C23.7454 3.46493 28.1559 5.76065 30.893 9.29799C30.7764 9.41181 30.6704 9.52978 30.5743 9.64759C30.0729 10.2645 29.6957 11.059 29.3935 11.8659C28.785 13.4887 28.3208 15.6085 27.891 17.5935L27.8528 17.7719C27.4239 19.7533 27.0254 21.5959 26.5434 22.9638C26.3269 23.5783 26.1216 24.0128 25.9395 24.291C25.7495 24.0105 25.5339 23.5708 25.3058 22.9475C24.7903 21.5403 24.3568 19.6263 23.8973 17.5827L23.8824 17.5157V17.5157C23.4407 15.5527 22.9723 13.4699 22.3881 11.8756C22.0947 11.0747 21.7347 10.2881 21.2638 9.67694C20.8016 9.07718 20.0323 8.40029 18.9071 8.40029C17.789 8.40029 17.0161 9.06983 16.5473 9.66287C16.0673 10.2701 15.693 11.0534 15.3848 11.8547C14.7639 13.4682 14.2563 15.5789 13.7839 17.5666L13.7351 17.7719C13.2674 19.7409 12.8301 21.5818 12.3337 22.9523C12.1442 23.4757 11.9654 23.8739 11.8036 24.1583C11.6454 23.8752 11.471 23.4797 11.2867 22.9607C10.8105 21.6194 10.3934 19.8301 9.94533 17.9083L9.8669 17.5719C9.40269 15.583 8.89906 13.4685 8.26938 11.85C7.95653 11.0457 7.57385 10.2584 7.07867 9.64838C6.96653 9.5103 6.83912 9.37013 6.6959 9.23609ZM5.03737 11.9253C5.16789 12.1701 5.30596 12.4736 5.44871 12.8406C5.99376 14.2416 6.4555 16.1533 6.93099 18.1905L7.02355 18.5875C7.45646 20.4464 7.90681 22.38 8.43727 23.8739C8.7194 24.6684 9.06013 25.4466 9.49829 26.0514C9.91268 26.6235 10.6561 27.3623 11.7992 27.3623C12.9389 27.3623 13.6841 26.627 14.1013 26.0576C14.5432 25.4542 14.8895 24.6769 15.1773 23.8818C15.7291 22.3584 16.1989 20.3794 16.6485 18.4855V18.4854L16.7173 18.1959C17.2017 16.1574 17.6681 14.2419 18.2091 12.8358C18.4598 12.1843 18.6945 11.7305 18.8987 11.449C19.0924 11.7281 19.3135 12.1747 19.5482 12.815C20.0637 14.2222 20.4968 16.1361 20.9565 18.1798L20.9715 18.2467C21.4131 20.2098 21.8815 22.2926 22.4656 23.8867C22.7591 24.6879 23.1191 25.4745 23.59 26.0855C24.0523 26.6854 24.8215 27.3623 25.9465 27.3623C27.0775 27.3623 27.8439 26.6792 28.3007 26.074C28.7645 25.4599 29.1132 24.6707 29.395 23.8708C29.9364 22.3344 30.3669 20.3408 30.7775 18.4444V18.4443L30.8363 18.169C31.2783 16.1278 31.7025 14.2214 32.2265 12.8246C32.3399 12.5208 32.4517 12.2617 32.5583 12.0441C33.361 13.7921 33.8062 15.7223 33.8062 17.7513C33.8062 25.6413 27.0747 32.0377 18.7704 32.0377C10.4662 32.0377 3.73437 25.6413 3.73437 17.7513C3.73437 15.6762 4.2 13.7044 5.03737 11.9253ZM18.7704 0.607666C8.8054 0.607666 0.727173 8.28312 0.727173 17.7513C0.727173 27.2194 8.8054 34.8948 18.7704 34.8948C28.7356 34.8948 36.8134 27.2194 36.8134 17.7513C36.8134 8.28312 28.7356 0.607666 18.7704 0.607666ZM19.1141 11.2098C19.1141 11.2101 19.1106 11.2128 19.1036 11.2167C19.1106 11.2114 19.1141 11.2095 19.1141 11.2098ZM18.6985 11.2117C18.6915 11.2077 18.6881 11.2049 18.6881 11.2045C18.6881 11.2042 18.6916 11.2062 18.6985 11.2117ZM25.7179 24.5623C25.7179 24.5623 25.7211 24.5592 25.7276 24.5552C25.7211 24.5605 25.7179 24.5627 25.7179 24.5623ZM26.1551 24.5508C26.1621 24.5548 26.1658 24.5574 26.1658 24.5579C26.1658 24.5583 26.1621 24.5561 26.1551 24.5508ZM11.491 24.5879C11.4909 24.5875 11.4953 24.5835 11.504 24.5778C11.4953 24.5853 11.491 24.5884 11.491 24.5879ZM12.1 24.5804C12.1086 24.5862 12.1129 24.5901 12.1129 24.5906C12.1128 24.591 12.1085 24.5884 12.1 24.5804Z" fill="#81818B"/>
<path d="M46.7764 27.9007L42.401 13.6801H46.2335L48.8286 23.9154L51.8458 13.6801H56.1308L59.1485 23.9154L61.7735 13.6801H65.606L61.2002 27.9007H57.1871L53.9883 17.2639L50.79 27.9007H46.7764Z" fill="#81818B"/>
<path d="M71.2293 28.2449C69.942 28.2449 68.8857 28.0533 68.0609 27.6711C67.2367 27.2698 66.623 26.7442 66.2203 26.0943C65.8181 25.4444 65.6171 24.7277 65.6171 23.9442C65.6171 22.6254 66.1599 21.5549 67.2461 20.733C68.3324 19.9112 69.9625 19.5002 72.1349 19.5002H75.937V19.1562C75.937 18.1813 75.6451 17.4646 75.0618 17.0059C74.4785 16.5471 73.754 16.3178 72.8894 16.3178C72.1045 16.3178 71.4204 16.4993 70.8371 16.8625C70.2539 17.2066 69.8916 17.7226 69.7509 18.4107H65.9788C66.0796 17.3786 66.4418 16.4802 67.065 15.7157C67.7092 14.9512 68.534 14.3682 69.5393 13.9668C70.5458 13.5463 71.6719 13.3361 72.9193 13.3361C75.0518 13.3361 76.7313 13.8425 77.9588 14.8556C79.1857 15.8686 79.7994 17.3022 79.7994 19.1562V27.9007H76.5098L76.148 25.6072C75.7055 26.3717 75.0818 27.0022 74.2775 27.4995C73.4926 27.9963 72.4767 28.2449 71.2293 28.2449ZM72.1045 25.3776C73.2112 25.3776 74.0659 25.0334 74.6691 24.3455C75.2928 23.6575 75.6855 22.8067 75.8467 21.7938H72.557C71.5312 21.7938 70.7972 21.9754 70.3541 22.3386C69.9121 22.6824 69.6905 23.1129 69.6905 23.6287C69.6905 24.1831 69.9121 24.6131 70.3541 24.9188C70.7972 25.2245 71.38 25.3776 72.1045 25.3776Z" fill="#81818B"/>
<path d="M85.8794 27.9007L80.3879 13.6801H84.431L88.233 24.4317L92.0351 13.6801H96.0786L90.5567 27.9007H85.8794Z" fill="#81818B"/>
<path d="M103.843 28.2449C102.334 28.2449 100.997 27.9388 99.8297 27.3273C98.6631 26.7155 97.748 25.8554 97.0839 24.7467C96.4198 23.6385 96.0885 22.3577 96.0885 20.905C96.0885 19.4333 96.4103 18.124 97.0535 16.9772C97.7176 15.8304 98.6227 14.9416 99.7698 14.3108C100.936 13.661 102.304 13.3361 103.873 13.3361C105.342 13.3361 106.639 13.6419 107.766 14.2535C108.892 14.8651 109.768 15.7061 110.391 16.7765C111.035 17.8277 111.357 19.0032 111.357 20.303C111.357 20.5132 111.347 20.733 111.327 20.9624C111.327 21.1918 111.316 21.4307 111.296 21.6792H99.9205C100.001 22.7877 100.403 23.6575 101.127 24.2884C101.871 24.9188 102.767 25.2343 103.813 25.2343C104.597 25.2343 105.251 25.0719 105.774 24.7467C106.317 24.403 106.72 23.9632 106.981 23.4279H110.904C110.623 24.3264 110.15 25.1485 109.486 25.8939C108.842 26.6199 108.038 27.1933 107.072 27.614C106.127 28.0343 105.05 28.2449 103.843 28.2449ZM103.873 16.3178C102.928 16.3178 102.093 16.5758 101.368 17.0919C100.644 17.5888 100.182 18.3534 99.9803 19.3855H107.434C107.373 18.4489 107.012 17.7035 106.348 17.1492C105.683 16.5949 104.859 16.3178 103.873 16.3178Z" fill="#81818B"/>
<path d="M113.398 27.9007V7.25781H117.261V27.9007H113.398Z" fill="#81818B"/>
<path d="M127.272 28.2449C125.764 28.2449 124.426 27.9388 123.259 27.3273C122.092 26.7155 121.177 25.8554 120.513 24.7467C119.849 23.6385 119.518 22.3577 119.518 20.905C119.518 19.4333 119.84 18.124 120.483 16.9772C121.147 15.8304 122.052 14.9416 123.199 14.3108C124.366 13.661 125.733 13.3361 127.302 13.3361C128.771 13.3361 130.069 13.6419 131.195 14.2535C132.321 14.8651 133.197 15.7061 133.82 16.7765C134.464 17.8277 134.786 19.0032 134.786 20.303C134.786 20.5132 134.776 20.733 134.756 20.9624C134.756 21.1918 134.745 21.4307 134.725 21.6792H123.35C123.43 22.7877 123.833 23.6575 124.557 24.2884C125.301 24.9188 126.196 25.2343 127.243 25.2343C128.026 25.2343 128.681 25.0719 129.203 24.7467C129.747 24.403 130.149 23.9632 130.41 23.4279H134.334C134.052 24.3264 133.579 25.1485 132.915 25.8939C132.271 26.6199 131.467 27.1933 130.501 27.614C129.556 28.0343 128.479 28.2449 127.272 28.2449ZM127.302 16.3178C126.357 16.3178 125.522 16.5758 124.798 17.0919C124.074 17.5888 123.611 18.3534 123.41 19.3855H130.863C130.803 18.4489 130.441 17.7035 129.777 17.1492C129.113 16.5949 128.288 16.3178 127.302 16.3178Z" fill="#81818B"/>
<path d="M143.014 28.2449C141.686 28.2449 140.519 28.044 139.513 27.6428C138.507 27.222 137.702 26.6487 137.099 25.9222C136.496 25.1962 136.133 24.3552 136.013 23.3996H139.905C140.026 23.9535 140.348 24.4317 140.871 24.833C141.414 25.2152 142.108 25.4064 142.953 25.4064C143.798 25.4064 144.412 25.244 144.793 24.9188C145.196 24.5941 145.397 24.2212 145.397 23.8008C145.397 23.189 145.116 22.778 144.552 22.5678C143.989 22.3386 143.204 22.1188 142.198 21.9085C141.555 21.7747 140.902 21.6123 140.237 21.4211C139.573 21.23 138.96 20.991 138.397 20.7044C137.853 20.3985 137.411 20.0163 137.068 19.5575C136.727 19.0797 136.556 18.4967 136.556 17.8086C136.556 16.5471 137.079 15.4864 138.125 14.6262C139.191 13.7661 140.679 13.3361 142.591 13.3361C144.361 13.3361 145.769 13.7279 146.815 14.5115C147.881 15.2952 148.515 16.3751 148.717 17.7513H145.065C144.844 16.7001 144.009 16.1744 142.561 16.1744C141.837 16.1744 141.273 16.3082 140.871 16.5758C140.489 16.8434 140.298 17.1779 140.298 17.5793C140.298 17.9998 140.589 18.3343 141.173 18.5828C141.756 18.8312 142.531 19.0606 143.496 19.2709C144.542 19.5002 145.497 19.7582 146.363 20.0449C147.248 20.3125 147.952 20.7235 148.475 21.2778C148.998 21.8129 149.26 22.5869 149.26 23.6C149.28 24.4795 149.038 25.2723 148.536 25.9797C148.033 26.6867 147.309 27.2411 146.363 27.6428C145.418 28.044 144.301 28.2449 143.014 28.2449Z" fill="#81818B"/>
<path d="M157.66 28.2449C156.332 28.2449 155.165 28.044 154.16 27.6428C153.154 27.222 152.349 26.6487 151.746 25.9222C151.142 25.1962 150.78 24.3552 150.66 23.3996H154.552C154.673 23.9535 154.995 24.4317 155.517 24.833C156.061 25.2152 156.754 25.4064 157.6 25.4064C158.444 25.4064 159.058 25.244 159.44 24.9188C159.842 24.5941 160.044 24.2212 160.044 23.8008C160.044 23.189 159.762 22.778 159.199 22.5678C158.636 22.3386 157.851 22.1188 156.845 21.9085C156.202 21.7747 155.548 21.6123 154.884 21.4211C154.22 21.23 153.606 20.991 153.043 20.7044C152.5 20.3985 152.057 20.0163 151.715 19.5575C151.373 19.0797 151.203 18.4967 151.203 17.8086C151.203 16.5471 151.726 15.4864 152.772 14.6262C153.838 13.7661 155.326 13.3361 157.237 13.3361C159.008 13.3361 160.416 13.7279 161.462 14.5115C162.528 15.2952 163.161 16.3751 163.363 17.7513H159.712C159.491 16.7001 158.656 16.1744 157.207 16.1744C156.483 16.1744 155.92 16.3082 155.517 16.5758C155.135 16.8434 154.944 17.1779 154.944 17.5793C154.944 17.9998 155.236 18.3343 155.819 18.5828C156.403 18.8312 157.177 19.0606 158.142 19.2709C159.189 19.5002 160.144 19.7582 161.01 20.0449C161.895 20.3125 162.599 20.7235 163.122 21.2778C163.644 21.8129 163.906 22.5869 163.906 23.6C163.926 24.4795 163.685 25.2723 163.182 25.9797C162.679 26.6867 161.955 27.2411 161.01 27.6428C160.064 28.044 158.947 28.2449 157.66 28.2449Z" fill="#81818B"/>
</svg>
