<svg width="148" height="40" viewBox="0 0 148 40" fill="none" xmlns="http://www.w3.org/2000/svg">
<path d="M57.7054 17.3896C57.3588 16.751 56.857 16.2676 56.2002 15.9392C55.5616 15.5926 54.8045 15.4192 53.9288 15.4192C52.4145 15.4192 51.2013 15.921 50.289 16.9244C49.3768 17.9096 48.9207 19.2324 48.9207 20.8926C48.9207 22.6623 49.3951 24.0489 50.3438 25.0523C51.3108 26.0375 52.6334 26.5301 54.3119 26.5301C55.4613 26.5301 56.4283 26.2382 57.2128 25.6544C58.0156 25.0705 58.5994 24.2313 58.9643 23.1366H53.0257V19.6884H63.2061V24.0398C62.8595 25.2074 62.2665 26.293 61.4273 27.2964C60.6063 28.2998 59.5572 29.1118 58.2801 29.732C57.003 30.3523 55.5616 30.6625 53.9562 30.6625C52.0587 30.6625 50.362 30.252 48.866 29.431C47.3881 28.5918 46.2296 27.4332 45.3904 25.9554C44.5694 24.4776 44.1589 22.79 44.1589 20.8926C44.1589 18.9951 44.5694 17.3075 45.3904 15.8297C46.2296 14.3337 47.3881 13.1752 48.866 12.3542C50.3438 11.5149 52.0313 11.0953 53.9288 11.0953C56.2276 11.0953 58.1615 11.6518 59.7305 12.7647C61.3178 13.8775 62.3669 15.4192 62.8777 17.3896H57.7054ZM70.478 17.8001C71.0253 16.9609 71.7095 16.3041 72.5305 15.8297C73.3515 15.3371 74.2638 15.0908 75.2672 15.0908V20.0442H73.9809C72.8133 20.0442 71.9376 20.2997 71.3537 20.8105C70.7699 21.3031 70.478 22.1788 70.478 23.4377V30.5257H65.7983V15.255H70.478V17.8001ZM84.4551 30.7446C82.959 30.7446 81.609 30.4254 80.4049 29.7868C79.2189 29.1482 78.2793 28.236 77.5861 27.0501C76.911 25.8642 76.5735 24.4776 76.5735 22.8903C76.5735 21.3213 76.9201 19.9439 77.6134 18.758C78.3067 17.5538 79.2555 16.6325 80.4596 15.9939C81.6637 15.3553 83.0137 15.0361 84.5099 15.0361C86.0059 15.0361 87.356 15.3553 88.5601 15.9939C89.7643 16.6325 90.713 17.5538 91.4063 18.758C92.0995 19.9439 92.4462 21.3213 92.4462 22.8903C92.4462 24.4594 92.0905 25.846 91.3789 27.0501C90.6856 28.236 89.7278 29.1482 88.5054 29.7868C87.3013 30.4254 85.9511 30.7446 84.4551 30.7446ZM84.4551 26.6943C85.3491 26.6943 86.1062 26.3659 86.7266 25.7091C87.3651 25.0523 87.6844 24.1127 87.6844 22.8903C87.6844 21.668 87.3742 20.7284 86.7539 20.0716C86.1519 19.4148 85.4038 19.0864 84.5099 19.0864C83.5976 19.0864 82.8405 19.4148 82.2384 20.0716C81.6364 20.7102 81.3353 21.6497 81.3353 22.8903C81.3353 24.1127 81.6272 25.0523 82.2111 25.7091C82.8131 26.3659 83.5611 26.6943 84.4551 26.6943ZM116.849 15.255L112.717 30.5257H107.544L105.137 20.6189L102.646 30.5257H97.5014L93.3416 15.255H98.0214L100.183 26.1744L102.756 15.255H107.709L110.308 26.1196L112.443 15.255H116.849ZM126.297 19.1411H123.779V30.5257H119.1V19.1411H117.403V15.255H119.1V14.8172C119.1 12.938 119.637 11.5149 120.714 10.5479C121.791 9.56275 123.369 9.07014 125.449 9.07014C125.795 9.07014 126.051 9.07927 126.215 9.09751V13.0657C125.321 13.011 124.692 13.1386 124.327 13.4488C123.961 13.759 123.779 14.3154 123.779 15.1182V15.255H126.297V19.1411ZM144.095 15.255L134.516 37.7779H129.481L132.984 30.0057L126.772 15.255H131.999L135.529 24.806L139.032 15.255H144.095Z" fill="white"/>
<path d="M23.257 12.632C23.257 8.5628 26.5557 5.26406 30.625 5.26406H37.9929V12.632C37.9929 16.7013 34.6942 20 30.625 20C26.5557 20 23.257 16.7013 23.257 12.632Z" fill="#FF6D35"/>
<path d="M30.6248 37.6771C26.5556 37.6771 23.2569 34.3784 23.2569 30.3092V22.9412H30.6248C34.6941 22.9412 37.9928 26.2399 37.9928 30.3092C37.9928 34.3784 34.6941 37.6771 30.6248 37.6771Z" fill="#5CC97B"/>
<path d="M20.9353 20.6522C20.9353 12.4754 14.8091 5.84694 7.25198 5.84694V30.0214C7.25198 34.1097 10.3151 37.424 14.0938 37.424C17.8723 37.424 20.9353 34.1097 20.9353 30.0214V20.6522Z" fill="#3D96F4"/>
</svg>
