<svg width="20" height="21" viewBox="0 0 20 21" fill="none" xmlns="http://www.w3.org/2000/svg">
<path d="M6.20499 4.49977C6.20479 4.8976 6.04656 5.27905 5.76512 5.56021C5.48367 5.84138 5.10206 5.99922 4.70424 5.99902C4.30641 5.99882 3.92496 5.8406 3.6438 5.55915C3.36263 5.27771 3.20479 4.8961 3.20499 4.49827C3.20519 4.10045 3.36341 3.719 3.64486 3.43783C3.9263 3.15667 4.30791 2.99882 4.70574 2.99902C5.10356 2.99922 5.48501 3.15745 5.76618 3.43889C6.04734 3.72034 6.20519 4.10195 6.20499 4.49977ZM6.24999 7.10977H3.24999V16.4998H6.24999V7.10977ZM10.99 7.10977H8.00499V16.4998H10.96V11.5723C10.96 8.82727 14.5375 8.57227 14.5375 11.5723V16.4998H17.5V10.5523C17.5 5.92477 12.205 6.09727 10.96 8.36977L10.99 7.10977Z" fill="#75757F"/>
</svg>
