<svg width="20" height="21" viewBox="0 0 20 21" fill="none" xmlns="http://www.w3.org/2000/svg">
<path fill-rule="evenodd" clip-rule="evenodd" d="M6.8 2.75H13.2C15.851 2.75 18 4.89903 18 7.55V13.95C18 16.601 15.851 18.75 13.2 18.75H6.8C4.14903 18.75 2 16.601 2 13.95V7.55C2 4.89903 4.14903 2.75 6.8 2.75ZM6.8 4.35C5.03269 4.35 3.6 5.78269 3.6 7.55V13.95C3.6 15.7173 5.03269 17.15 6.8 17.15H13.2C14.9673 17.15 16.4 15.7173 16.4 13.95V7.55C16.4 5.78269 14.9673 4.35 13.2 4.35H6.8ZM10 14.75C7.79086 14.75 6 12.9591 6 10.75C6 8.54086 7.79086 6.75 10 6.75C12.2091 6.75 14 8.54086 14 10.75C14 12.9591 12.2091 14.75 10 14.75ZM10 13.15C11.3255 13.15 12.4 12.0755 12.4 10.75C12.4 9.42452 11.3255 8.35 10 8.35C8.67452 8.35 7.6 9.42452 7.6 10.75C7.6 12.0755 8.67452 13.15 10 13.15ZM14 7.55C13.5582 7.55 13.2 7.19183 13.2 6.75C13.2 6.30817 13.5582 5.95 14 5.95C14.4418 5.95 14.8 6.30817 14.8 6.75C14.8 7.19183 14.4418 7.55 14 7.55Z" fill="#75757F"/>
</svg>
