<svg width="137" height="34" viewBox="0 0 137 34" fill="none" xmlns="http://www.w3.org/2000/svg">
<path d="M50.6049 12.6554C50.2583 12.0168 49.7565 11.5334 49.0997 11.205C48.4611 10.8584 47.704 10.685 46.8283 10.685C45.3139 10.685 44.1008 11.1868 43.1885 12.1902C42.2762 13.1754 41.8202 14.4982 41.8202 16.1584C41.8202 17.9281 42.2946 19.3147 43.2432 20.3181C44.2102 21.3033 45.5329 21.7959 47.2114 21.7959C48.3608 21.7959 49.3278 21.504 50.1123 20.9202C50.9151 20.3363 51.4988 19.4971 51.8638 18.4024H45.9252V14.9542H56.1056V19.3055C55.759 20.4732 55.166 21.5588 54.3268 22.5622C53.5058 23.5656 52.4567 24.3776 51.1796 24.9978C49.9025 25.6181 48.4611 25.9283 46.8556 25.9283C44.9582 25.9283 43.2614 25.5178 41.7654 24.6968C40.2876 23.8576 39.1291 22.699 38.2899 21.2212C37.4688 19.7434 37.0583 18.0558 37.0583 16.1584C37.0583 14.2609 37.4688 12.5733 38.2899 11.0955C39.1291 9.59951 40.2876 8.44095 41.7654 7.61995C43.2432 6.78073 44.9308 6.36108 46.8283 6.36108C49.1271 6.36108 51.061 6.91757 52.63 8.03045C54.2173 9.14333 55.2664 10.685 55.7772 12.6554H50.6049ZM63.3775 13.0659C63.9248 12.2267 64.609 11.5699 65.43 11.0955C66.251 10.6029 67.1632 10.3566 68.1666 10.3566V15.31H66.8804C65.7128 15.31 64.8371 15.5655 64.2532 16.0763C63.6693 16.5689 63.3775 17.4446 63.3775 18.7035V25.7915H58.6978V10.5208H63.3775V13.0659ZM77.3546 26.0104C75.8585 26.0104 74.5085 25.6912 73.3043 25.0526C72.1184 24.414 71.1788 23.5018 70.4856 22.3159C69.8104 21.13 69.473 19.7434 69.473 18.1561C69.473 16.5871 69.8196 15.2097 70.5129 14.0238C71.2061 12.8196 72.1549 11.8983 73.3591 11.2597C74.5632 10.6211 75.9132 10.3019 77.4093 10.3019C78.9054 10.3019 80.2555 10.6211 81.4596 11.2597C82.6638 11.8983 83.6124 12.8196 84.3058 14.0238C84.999 15.2097 85.3457 16.5871 85.3457 18.1561C85.3457 19.7252 84.9899 21.1118 84.2784 22.3159C83.5851 23.5018 82.6272 24.414 81.4049 25.0526C80.2007 25.6912 78.8506 26.0104 77.3546 26.0104ZM77.3546 21.9601C78.2486 21.9601 79.0057 21.6317 79.626 20.9749C80.2645 20.3181 80.5839 19.3785 80.5839 18.1561C80.5839 16.9338 80.2737 15.9942 79.6534 15.3374C79.0513 14.6806 78.3033 14.3522 77.4093 14.3522C76.4971 14.3522 75.74 14.6806 75.1379 15.3374C74.5358 15.976 74.2348 16.9155 74.2348 18.1561C74.2348 19.3785 74.5267 20.3181 75.1105 20.9749C75.7126 21.6317 76.4606 21.9601 77.3546 21.9601ZM109.749 10.5208L105.616 25.7915H100.444L98.0362 15.8847L95.5458 25.7915H90.4009L86.2411 10.5208H90.9208L93.0828 21.4402L95.6553 10.5208H100.608L103.208 21.3854L105.343 10.5208H109.749ZM119.196 14.4069H116.679V25.7915H111.999V14.4069H110.302V10.5208H111.999V10.083C111.999 8.20381 112.537 6.78074 113.614 5.81374C114.69 4.82854 116.268 4.33594 118.348 4.33594C118.694 4.33594 118.95 4.34506 119.114 4.3633V8.33148C118.221 8.27675 117.591 8.40442 117.226 8.71462C116.861 9.02481 116.679 9.58119 116.679 10.384V10.5208H119.196V14.4069ZM136.994 10.5208L127.416 33.0436H122.38L125.883 25.2715L119.671 10.5208H124.898L128.429 20.0718L131.931 10.5208H136.994Z" fill="white"/>
<path d="M16.1565 7.89775C16.1565 3.82852 19.4552 0.529785 23.5244 0.529785H30.8924V7.89775C30.8924 11.967 27.5937 15.2657 23.5244 15.2657C19.4552 15.2657 16.1565 11.967 16.1565 7.89775Z" fill="#FF6D35"/>
<path d="M23.5243 32.943C19.4551 32.943 16.1564 29.6442 16.1564 25.575V18.207H23.5243C27.5935 18.207 30.8923 21.5058 30.8923 25.575C30.8923 29.6442 27.5935 32.943 23.5243 32.943Z" fill="#5CC97B"/>
<path d="M13.8348 15.918C13.8348 7.74126 7.70856 1.11279 0.151459 1.11279V25.2872C0.151459 29.3755 3.21458 32.6898 6.99324 32.6898C10.7717 32.6898 13.8348 29.3755 13.8348 25.2872V15.918Z" fill="#3D96F4"/>
</svg>
