<svg width="20" height="21" viewBox="0 0 20 21" fill="none" xmlns="http://www.w3.org/2000/svg">
<path d="M15.359 6.65097C15.9874 6.24332 16.4035 5.68692 16.6072 4.9793C15.9959 5.32202 15.387 5.55707 14.7788 5.68692C14.232 5.0656 13.5399 4.75 12.71 4.75C11.8988 4.75 11.2137 5.0508 10.6545 5.63597C10.0984 6.22524 9.81762 6.94108 9.81762 7.77692C9.81762 8.03087 9.84795 8.25771 9.90862 8.45002C7.5163 8.36373 5.53619 7.31503 3.97606 5.29654C3.71163 5.79048 3.57941 6.29346 3.57941 6.81369C3.57941 7.88294 4.00639 8.73028 4.85879 9.35242C4.3727 9.30887 3.94417 9.17901 3.57941 8.96615C3.57941 9.72966 3.79173 10.3674 4.21715 10.9288C4.64413 11.4843 5.19243 11.8386 5.86206 11.9898C5.61941 12.0555 5.36354 12.0868 5.10066 12.0868C4.85801 12.0868 4.68613 12.0654 4.58425 12.0185C4.76312 12.6407 5.10066 13.1453 5.5883 13.5316C6.07438 13.9195 6.63358 14.1242 7.26199 14.1422C6.22604 15.0011 5.04155 15.426 3.70152 15.426C3.37331 15.426 3.14077 15.421 3 15.3947C4.31982 16.3004 5.78896 16.75 7.41442 16.75C9.078 16.75 10.5479 16.3046 11.8273 15.4137C13.1067 14.5277 14.0508 13.4346 14.6575 12.1476C15.2672 10.8622 15.569 9.52419 15.569 8.12703V7.7424C16.1585 7.27394 16.6352 6.7463 17 6.1636C16.4711 6.40441 15.9244 6.56796 15.359 6.65097Z" fill="#75757F"/>
</svg>
