<svg width="20" height="19" viewBox="0 0 20 19" fill="none" xmlns="http://www.w3.org/2000/svg">
<path d="M17.6657 5.62759C17.4817 4.88853 16.9395 4.30647 16.2511 4.10894C15.0033 3.75 10 3.75 10 3.75C10 3.75 4.99669 3.75 3.7489 4.10894C3.06052 4.3065 2.51835 4.88853 2.33434 5.62759C2 6.96719 2 9.76213 2 9.76213C2 9.76213 2 12.5571 2.33434 13.8967C2.51835 14.6357 3.06052 15.1935 3.7489 15.3911C4.99669 15.75 10 15.75 10 15.75C10 15.75 15.0033 15.75 16.2511 15.3911C16.9395 15.1935 17.4817 14.6357 17.6657 13.8967C18 12.5571 18 9.76213 18 9.76213C18 9.76213 18 6.96719 17.6657 5.62759ZM8.36363 12.2997V7.22453L12.5454 9.76219L8.36363 12.2997Z" fill="#75757F"/>
</svg>
