<svg width="27" height="32" fill="none" xmlns="http://www.w3.org/2000/svg"><path clip-rule="evenodd" d="M23.566 27.73c-.294 2.263-1.807 3.4-4.495 3.4H5.003c-1.911 0-3.465-1.463-3.465-3.262V12.991c4.461-.435 6.692-1.993 6.692-6.18V4.803c0-2.116 1.8-3.83 4.021-3.83a4.16 4.16 0 012.357.726c.945.653 1.547 1.888 1.547 3.667v5.81c0 .494.837.899 1.673.899h4.488c1.89 0 3.424 1.423 3.466 3.192.028 1.18-.711 4.831-2.216 12.462z" stroke="#fff" stroke-width="1.608" stroke-linecap="round" stroke-linejoin="round"/></svg>