<svg width="77" height="76" fill="none" xmlns="http://www.w3.org/2000/svg"><g clip-path="url(#clip0_1_228)"><g clip-path="url(#clip1_1_228)"><path opacity=".06" d="M55.19.266H21.414C9.866.266.504 9.626.504 21.174V54.95c0 11.548 9.362 20.91 20.91 20.91H55.19c11.547 0 20.909-9.362 20.909-20.91V21.174c0-11.547-9.362-20.908-20.91-20.908z" fill="#0089FF"/><path d="M38.302 63.803c14.216 0 25.74-11.524 25.74-25.74 0-14.217-11.524-25.74-25.74-25.74s-25.74 11.523-25.74 25.74c0 14.216 11.524 25.74 25.74 25.74z" fill="#1B76FF"/><path clip-rule="evenodd" d="M24.892 32.969h4.646v18.16h-4.646c-.7 0-1.267-.54-1.267-1.205V34.175c0-.666.567-1.206 1.267-1.206zM51.566 47.73c-.294 2.263-1.807 3.4-4.495 3.4H33.003c-1.911 0-3.465-1.463-3.465-3.262V32.99c4.461-.434 6.692-1.992 6.692-6.18v-2.006c0-2.116 1.8-3.83 4.021-3.83.846 0 1.671.254 2.357.726.945.653 1.548 1.888 1.548 3.667v5.81c0 .494.836.899 1.672.899h4.488c1.89 0 3.424 1.423 3.466 3.193.028 1.179-.711 4.83-2.216 12.46z" stroke="#fff" stroke-width="1.608" stroke-linecap="round" stroke-linejoin="round"/></g></g><defs><clipPath id="clip0_1_228"><path fill="#fff" transform="translate(.505 .266)" d="M0 0h75.594v75.594H0z"/></clipPath><clipPath id="clip1_1_228"><path fill="#fff" transform="translate(.505 .266)" d="M0 0h75.594v75.594H0z"/></clipPath></defs></svg>