<svg width="77" height="76" fill="none" xmlns="http://www.w3.org/2000/svg"><g clip-path="url(#clip0_5_3)"><g clip-path="url(#clip1_5_3)"><path opacity=".06" d="M55.765 0H21.807C10.197 0 .787 9.412.787 21.021V54.98C.786 66.589 10.196 76 21.806 76h33.958c11.61 0 21.021-9.412 21.021-21.021V21.02C76.786 9.411 67.375 0 55.765 0z" fill="#F6CA4F"/><path d="M38.786 63.879c14.293 0 25.879-11.587 25.879-25.879 0-14.292-11.586-25.879-25.879-25.879-14.292 0-25.879 11.587-25.879 25.88 0 14.291 11.587 25.878 25.88 25.878z" fill="#FF6D35"/><path d="M48.337 49.673H29.236a4.257 4.257 0 01-4.245-4.245V30.572a4.257 4.257 0 014.245-4.245h19.1a4.257 4.257 0 014.245 4.245v14.856a4.257 4.257 0 01-4.244 4.245z" stroke="#fff" stroke-width="2" stroke-miterlimit="10" stroke-linecap="round" stroke-linejoin="round"/><path d="M24.99 31.633l13.796 8.49 13.795-8.49" stroke="#fff" stroke-width="2" stroke-miterlimit="10" stroke-linecap="round" stroke-linejoin="round"/></g></g><defs><clipPath id="clip0_5_3"><path fill="#fff" transform="translate(.505 .266)" d="M0 0h75.594v75.594H0z"/></clipPath><clipPath id="clip1_5_3"><path fill="#fff" transform="translate(.786)" d="M0 0h76v76H0z"/></clipPath></defs></svg>