<svg width="77" height="76" fill="none" xmlns="http://www.w3.org/2000/svg"><g clip-path="url(#clip0_1_243)"><path opacity=".06" d="M55.145.266H21.369C9.821.266.46 9.626.46 21.174V54.95c0 11.548 9.361 20.91 20.91 20.91h33.775c11.548 0 20.909-9.362 20.909-20.91V21.174C76.054 9.628 66.693.267 55.145.267z" fill="#FF6F35"/><path d="M38.257 63.803c14.216 0 25.74-11.524 25.74-25.74 0-14.217-11.524-25.74-25.74-25.74s-25.74 11.523-25.74 25.74c0 14.216 11.524 25.74 25.74 25.74z" fill="#FFCD1D"/><path d="M38.257 21.845V54.28m7.372-26.538H34.57a5.16 5.16 0 100 10.32h7.372a5.16 5.16 0 110 10.32H29.41" stroke="#fff" stroke-width="2.413" stroke-linecap="round" stroke-linejoin="round"/></g><defs><clipPath id="clip0_1_243"><path fill="#fff" transform="translate(.46 .266)" d="M0 0h75.594v75.594H0z"/></clipPath></defs></svg>