<svg width="77" height="77" fill="none" xmlns="http://www.w3.org/2000/svg"><g clip-path="url(#clip0_1_253)"><g clip-path="url(#clip1_1_253)"><path opacity=".06" d="M55.145.86H21.369C9.821.86.46 10.22.46 21.767v33.776c0 11.548 9.361 20.91 20.91 20.91h33.775c11.548 0 20.909-9.362 20.909-20.91V21.768C76.054 10.221 66.693.86 55.145.86z" fill="#5CC97B"/><path d="M38.257 64.397c14.216 0 25.74-11.525 25.74-25.74 0-14.217-11.524-25.741-25.74-25.741s-25.74 11.524-25.74 25.74 11.524 25.74 25.74 25.74z" fill="#5CC97B"/><path fill-rule="evenodd" clip-rule="evenodd" d="M41.014 45.03a10.84 10.84 0 01-6.448 1.79c-6.01-.247-10.68-5.32-10.432-11.33.248-6.01 5.321-10.679 11.33-10.43 6.008.247 10.68 5.32 10.432 11.329a10.839 10.839 0 01-1.891 5.699l7.337 7.123a2.492 2.492 0 01-.058 3.439l-.042.04-.046.038a2.49 2.49 0 01-3.43-.223l-6.752-7.476zm-6.345-.721a8.377 8.377 0 11.693-16.74 8.377 8.377 0 01-.693 16.74z" fill="#fff"/></g></g><defs><clipPath id="clip0_1_253"><path fill="#fff" transform="translate(.46 .86)" d="M0 0h75.594v75.594H0z"/></clipPath><clipPath id="clip1_1_253"><path fill="#fff" transform="translate(.46 .86)" d="M0 0h75.594v75.594H0z"/></clipPath></defs></svg>