<svg width="114" height="123" fill="none" xmlns="http://www.w3.org/2000/svg"><rect x=".386" y=".047" width="9.233" height="10" rx="4.616" fill="#81818B" fill-opacity=".2"/><rect x="15.159" y=".047" width="9.233" height="10" rx="4.616" fill="#81818B" fill-opacity=".2"/><rect x="29.931" y=".047" width="9.233" height="10" rx="4.616" fill="#81818B" fill-opacity=".2"/><rect x="44.704" y=".047" width="9.233" height="10" rx="4.616" fill="#81818B" fill-opacity=".2"/><rect x="59.476" y=".047" width="9.233" height="10" rx="4.616" fill="#81818B" fill-opacity=".2"/><rect x="74.249" y=".047" width="9.233" height="10" rx="4.616" fill="#81818B" fill-opacity=".2"/><rect x="89.021" y=".047" width="9.233" height="10" rx="4.616" fill="#81818B" fill-opacity=".2"/><rect x="103.794" y=".047" width="9.233" height="10" rx="4.616" fill="#81818B" fill-opacity=".2"/><rect x=".386" y="16.047" width="9.233" height="10" rx="4.616" fill="#81818B" fill-opacity=".2"/><rect x="15.159" y="16.047" width="9.233" height="10" rx="4.616" fill="#81818B" fill-opacity=".2"/><rect x="29.931" y="16.047" width="9.233" height="10" rx="4.616" fill="#81818B" fill-opacity=".2"/><rect x="44.704" y="16.047" width="9.233" height="10" rx="4.616" fill="#81818B" fill-opacity=".2"/><rect x="59.476" y="16.047" width="9.233" height="10" rx="4.616" fill="#81818B" fill-opacity=".2"/><rect x="74.249" y="16.047" width="9.233" height="10" rx="4.616" fill="#81818B" fill-opacity=".2"/><rect x="89.021" y="16.047" width="9.233" height="10" rx="4.616" fill="#81818B" fill-opacity=".2"/><rect x="103.794" y="16.047" width="9.233" height="10" rx="4.616" fill="#81818B" fill-opacity=".2"/><rect x=".386" y="32.047" width="9.233" height="10" rx="4.616" fill="#81818B" fill-opacity=".2"/><rect x="15.159" y="32.047" width="9.233" height="10" rx="4.616" fill="#81818B" fill-opacity=".2"/><rect x="29.931" y="32.047" width="9.233" height="10" rx="4.616" fill="#81818B" fill-opacity=".2"/><rect x="44.704" y="32.047" width="9.233" height="10" rx="4.616" fill="#81818B" fill-opacity=".2"/><rect x="59.476" y="32.047" width="9.233" height="10" rx="4.616" fill="#81818B" fill-opacity=".2"/><rect x="74.249" y="32.047" width="9.233" height="10" rx="4.616" fill="#81818B" fill-opacity=".2"/><rect x="89.021" y="32.047" width="9.233" height="10" rx="4.616" fill="#81818B" fill-opacity=".2"/><rect x="103.794" y="32.047" width="9.233" height="10" rx="4.616" fill="#81818B" fill-opacity=".2"/><rect x=".386" y="48.047" width="9.233" height="10" rx="4.616" fill="#81818B" fill-opacity=".2"/><rect x="15.159" y="48.047" width="9.233" height="10" rx="4.616" fill="#81818B" fill-opacity=".2"/><rect x="29.931" y="48.047" width="9.233" height="10" rx="4.616" fill="#81818B" fill-opacity=".2"/><rect x="44.704" y="48.047" width="9.233" height="10" rx="4.616" fill="#81818B" fill-opacity=".2"/><rect x="59.476" y="48.047" width="9.233" height="10" rx="4.616" fill="#81818B" fill-opacity=".2"/><rect x="74.249" y="48.047" width="9.233" height="10" rx="4.616" fill="#81818B" fill-opacity=".2"/><rect x="89.021" y="48.047" width="9.233" height="10" rx="4.616" fill="#81818B" fill-opacity=".2"/><rect x="103.794" y="48.047" width="9.233" height="10" rx="4.616" fill="#81818B" fill-opacity=".2"/><rect x=".386" y="64.047" width="9.233" height="10" rx="4.616" fill="#81818B" fill-opacity=".2"/><rect x="15.159" y="64.047" width="9.233" height="10" rx="4.616" fill="#81818B" fill-opacity=".2"/><rect x="29.931" y="64.047" width="9.233" height="10" rx="4.616" fill="#81818B" fill-opacity=".2"/><rect x="44.704" y="64.047" width="9.233" height="10" rx="4.616" fill="#81818B" fill-opacity=".2"/><rect x="59.476" y="64.047" width="9.233" height="10" rx="4.616" fill="#81818B" fill-opacity=".2"/><rect x="74.249" y="64.047" width="9.233" height="10" rx="4.616" fill="#81818B" fill-opacity=".2"/><rect x="89.021" y="64.047" width="9.233" height="10" rx="4.616" fill="#81818B" fill-opacity=".2"/><rect x="103.794" y="64.047" width="9.233" height="10" rx="4.616" fill="#81818B" fill-opacity=".2"/><rect x=".386" y="80.047" width="9.233" height="10" rx="4.616" fill="#81818B" fill-opacity=".2"/><rect x="15.159" y="80.047" width="9.233" height="10" rx="4.616" fill="#81818B" fill-opacity=".2"/><rect x="29.931" y="80.047" width="9.233" height="10" rx="4.616" fill="#81818B" fill-opacity=".2"/><rect x="44.704" y="80.047" width="9.233" height="10" rx="4.616" fill="#81818B" fill-opacity=".2"/><rect x="59.476" y="80.047" width="9.233" height="10" rx="4.616" fill="#81818B" fill-opacity=".2"/><rect x="74.249" y="80.047" width="9.233" height="10" rx="4.616" fill="#81818B" fill-opacity=".2"/><rect x="89.021" y="80.047" width="9.233" height="10" rx="4.616" fill="#81818B" fill-opacity=".2"/><rect x="103.794" y="80.047" width="9.233" height="10" rx="4.616" fill="#81818B" fill-opacity=".2"/><rect x=".386" y="96.047" width="9.233" height="10" rx="4.616" fill="#81818B" fill-opacity=".2"/><rect x="15.159" y="96.047" width="9.233" height="10" rx="4.616" fill="#81818B" fill-opacity=".2"/><rect x="29.931" y="96.047" width="9.233" height="10" rx="4.616" fill="#81818B" fill-opacity=".2"/><rect x="44.704" y="96.047" width="9.233" height="10" rx="4.616" fill="#81818B" fill-opacity=".2"/><rect x="59.476" y="96.047" width="9.233" height="10" rx="4.616" fill="#81818B" fill-opacity=".2"/><rect x="74.249" y="96.047" width="9.233" height="10" rx="4.616" fill="#81818B" fill-opacity=".2"/><rect x="89.021" y="96.047" width="9.233" height="10" rx="4.616" fill="#81818B" fill-opacity=".2"/><rect x="103.794" y="96.047" width="9.233" height="10" rx="4.616" fill="#81818B" fill-opacity=".2"/><rect x=".386" y="112.047" width="9.233" height="10" rx="4.616" fill="#81818B" fill-opacity=".2"/><rect x="15.159" y="112.047" width="9.233" height="10" rx="4.616" fill="#81818B" fill-opacity=".2"/><rect x="29.931" y="112.047" width="9.233" height="10" rx="4.616" fill="#81818B" fill-opacity=".2"/><rect x="44.704" y="112.047" width="9.233" height="10" rx="4.616" fill="#81818B" fill-opacity=".2"/><rect x="59.476" y="112.047" width="9.233" height="10" rx="4.616" fill="#81818B" fill-opacity=".2"/><rect x="74.249" y="112.047" width="9.233" height="10" rx="4.616" fill="#81818B" fill-opacity=".2"/><rect x="89.021" y="112.047" width="9.233" height="10" rx="4.616" fill="#81818B" fill-opacity=".2"/><rect x="103.794" y="112.047" width="9.233" height="10" rx="4.616" fill="#81818B" fill-opacity=".2"/></svg>