<svg width="27" height="32" viewBox="0 0 27 32" fill="none" xmlns="http://www.w3.org/2000/svg">
<path fill-rule="evenodd" clip-rule="evenodd" d="M23.5657 27.7297C23.2716 29.9931 21.7594 31.1299 19.0709 31.1299H5.00329C3.09197 31.1299 1.53772 29.667 1.53772 27.8681V12.9905C5.99896 12.5556 8.22953 10.9982 8.22953 6.81039V4.80354C8.22953 2.68828 10.03 0.973511 12.251 0.973511C13.0975 0.973511 13.9222 1.2278 14.608 1.70026C15.5532 2.35261 16.1555 3.58817 16.1555 5.36728V11.1765C16.1555 11.6707 16.992 12.0759 17.8285 12.0759H22.3159C24.2064 12.0759 25.7396 13.4992 25.7816 15.2685C25.8097 16.448 25.071 20.0991 23.5657 27.7297Z" stroke="white" stroke-width="1.60838" stroke-linecap="round" stroke-linejoin="round"/>
</svg>
