<svg width="77" height="76" viewBox="0 0 77 76" fill="none" xmlns="http://www.w3.org/2000/svg">
<g clip-path="url(#clip0_1_228)">
<g clip-path="url(#clip1_1_228)">
<path opacity="0.06" d="M55.1897 0.265625H21.4138C9.86612 0.265625 0.504883 9.62687 0.504883 21.1745V54.9505C0.504883 66.4981 9.86612 75.8594 21.4138 75.8594H55.1897C66.7374 75.8594 76.0986 66.4981 76.0986 54.9505V21.1745C76.0986 9.62687 66.7374 0.265625 55.1897 0.265625Z" fill="#0089FF"/>
<path d="M38.3019 63.8029C52.5179 63.8029 64.0423 52.2786 64.0423 38.0625C64.0423 23.8465 52.5179 12.3221 38.3019 12.3221C24.0858 12.3221 12.5615 23.8465 12.5615 38.0625C12.5615 52.2786 24.0858 63.8029 38.3019 63.8029Z" fill="#1B76FF"/>
<path fill-rule="evenodd" clip-rule="evenodd" d="M24.8919 32.9688H29.5377V51.1299H24.8919C24.1924 51.1299 23.6253 50.5898 23.6253 49.9236V34.175C23.6253 33.5088 24.1924 32.9688 24.8919 32.9688Z" stroke="white" stroke-width="1.60838" stroke-linecap="round" stroke-linejoin="round"/>
<path fill-rule="evenodd" clip-rule="evenodd" d="M51.5657 47.7297C51.2716 49.9931 49.7594 51.1299 47.0709 51.1299H33.0033C31.092 51.1299 29.5377 49.667 29.5377 47.8681V32.9905C33.999 32.5556 36.2295 30.9982 36.2295 26.8104V24.8035C36.2295 22.6883 38.03 20.9735 40.251 20.9735C41.0975 20.9735 41.9222 21.2278 42.608 21.7003C43.5532 22.3526 44.1555 23.5882 44.1555 25.3673V31.1765C44.1555 31.6707 44.992 32.0759 45.8285 32.0759H50.3159C52.2064 32.0759 53.7396 33.4992 53.7816 35.2685C53.8097 36.448 53.071 40.0991 51.5657 47.7297Z" stroke="white" stroke-width="1.60838" stroke-linecap="round" stroke-linejoin="round"/>
</g>
</g>
<defs>
<clipPath id="clip0_1_228">
<rect width="75.5938" height="75.5938" fill="white" transform="translate(0.504883 0.265625)"/>
</clipPath>
<clipPath id="clip1_1_228">
<rect width="75.5938" height="75.5938" fill="white" transform="translate(0.504883 0.265625)"/>
</clipPath>
</defs>
</svg>
