<svg width="77" height="76" viewBox="0 0 77 76" fill="none" xmlns="http://www.w3.org/2000/svg">
<g clip-path="url(#clip0_5_3)">
<g clip-path="url(#clip1_5_3)">
<path opacity="0.06" d="M55.7649 0H21.8074C10.1977 0 0.786133 9.41155 0.786133 21.0213V54.9787C0.786133 66.5885 10.1977 76 21.8074 76H55.7649C67.3746 76 76.7861 66.5885 76.7861 54.9787V21.0213C76.7861 9.41155 67.3746 0 55.7649 0Z" fill="#F6CA4F"/>
<path d="M38.7862 63.8788C53.0786 63.8788 64.6649 52.2925 64.6649 38.0001C64.6649 23.7076 53.0786 12.1213 38.7862 12.1213C24.4938 12.1213 12.9075 23.7076 12.9075 38.0001C12.9075 52.2925 24.4938 63.8788 38.7862 63.8788Z" fill="#FF6D35"/>
<path d="M48.3367 49.6729H29.2356C26.901 49.6729 24.9909 47.7628 24.9909 45.4282V30.5718C24.9909 28.2373 26.901 26.3271 29.2356 26.3271H48.3367C50.6712 26.3271 52.5813 28.2373 52.5813 30.5718V45.4282C52.5813 47.7628 50.6712 49.6729 48.3367 49.6729Z" stroke="white" stroke-width="2" stroke-miterlimit="10" stroke-linecap="round" stroke-linejoin="round"/>
<path d="M24.9909 31.6329L38.7861 40.1223L52.5813 31.6329" stroke="white" stroke-width="2" stroke-miterlimit="10" stroke-linecap="round" stroke-linejoin="round"/>
</g>
</g>
<defs>
<clipPath id="clip0_5_3">
<rect width="75.5938" height="75.5938" fill="white" transform="translate(0.504883 0.265625)"/>
</clipPath>
<clipPath id="clip1_5_3">
<rect width="76" height="76" fill="white" transform="translate(0.786133)"/>
</clipPath>
</defs>
</svg>
