<svg width="77" height="76" viewBox="0 0 77 76" fill="none" xmlns="http://www.w3.org/2000/svg">
<g clip-path="url(#clip0_1_243)">
<path opacity="0.06" d="M55.145 0.265625H21.3691C9.82145 0.265625 0.460205 9.62687 0.460205 21.1745V54.9505C0.460205 66.4981 9.82145 75.8594 21.3691 75.8594H55.145C66.6927 75.8594 76.054 66.4981 76.054 54.9505V21.1745C76.054 9.62687 66.6927 0.265625 55.145 0.265625Z" fill="#FF6F35"/>
<path d="M38.2571 63.8029C52.4732 63.8029 63.9975 52.2786 63.9975 38.0625C63.9975 23.8465 52.4732 12.3221 38.2571 12.3221C24.0411 12.3221 12.5167 23.8465 12.5167 38.0625C12.5167 52.2786 24.0411 63.8029 38.2571 63.8029Z" fill="#FFCD1D"/>
<path d="M38.2571 21.8447V54.2804" stroke="white" stroke-width="2.41257" stroke-linecap="round" stroke-linejoin="round"/>
<path d="M45.6288 27.7421H34.5712C33.2027 27.7421 31.8902 28.2857 30.9224 29.2535C29.9546 30.2211 29.411 31.5337 29.411 32.9022C29.411 34.2708 29.9546 35.5833 30.9224 36.5511C31.8902 37.5188 33.2027 38.0625 34.5712 38.0625H41.9429C43.3115 38.0625 44.624 38.6061 45.5918 39.5739C46.5595 40.5415 47.1032 41.8541 47.1032 43.2227C47.1032 44.5913 46.5595 45.9038 45.5918 46.8715C44.624 47.8392 43.3115 48.3829 41.9429 48.3829H29.411" stroke="white" stroke-width="2.41257" stroke-linecap="round" stroke-linejoin="round"/>
</g>
<defs>
<clipPath id="clip0_1_243">
<rect width="75.5938" height="75.5938" fill="white" transform="translate(0.460205 0.265625)"/>
</clipPath>
</defs>
</svg>
