<svg width="29" height="29" viewBox="0 0 29 29" fill="none" xmlns="http://www.w3.org/2000/svg">
<path fill-rule="evenodd" clip-rule="evenodd" d="M17.0141 20.0292C15.1711 21.2479 12.9414 21.9189 10.5656 21.8208C4.55644 21.5726 -0.113967 16.4995 0.134206 10.4901C0.382378 4.48069 5.4552 -0.188917 11.4643 0.0592559C17.4725 0.307348 22.144 5.37945 21.8958 11.3889C21.8083 13.5072 21.1212 15.4592 20.0049 17.088L27.3415 24.2115C28.2467 25.1929 28.2143 26.7099 27.2843 27.6499L27.2415 27.6893L27.1963 27.7284C26.1853 28.5779 24.6707 28.4868 23.7664 27.5046L17.0141 20.0292ZM10.6693 19.309C6.04708 19.1181 2.45429 15.2157 2.6452 10.5935C2.83612 5.97125 6.73845 2.37846 11.3607 2.56937C15.9829 2.76028 19.5758 6.66261 19.3849 11.2848C19.194 15.9071 15.2916 19.4999 10.6693 19.309Z" fill="white"/>
</svg>
