<svg width="77" height="77" viewBox="0 0 77 77" fill="none" xmlns="http://www.w3.org/2000/svg">
<g clip-path="url(#clip0_1_253)">
<g clip-path="url(#clip1_1_253)">
<path opacity="0.06" d="M55.145 0.859375H21.3691C9.82145 0.859375 0.460205 10.2206 0.460205 21.7683V55.5442C0.460205 67.0919 9.82145 76.4531 21.3691 76.4531H55.145C66.6927 76.4531 76.054 67.0919 76.054 55.5442V21.7683C76.054 10.2206 66.6927 0.859375 55.145 0.859375Z" fill="#5CC97B"/>
<path d="M38.2571 64.3967C52.4732 64.3967 63.9975 52.8723 63.9975 38.6563C63.9975 24.4402 52.4732 12.9159 38.2571 12.9159C24.0411 12.9159 12.5167 24.4402 12.5167 38.6563C12.5167 52.8723 24.0411 64.3967 38.2571 64.3967Z" fill="#5CC97B"/>
<path fill-rule="evenodd" clip-rule="evenodd" d="M41.0141 45.0292C39.1711 46.2479 36.9414 46.9189 34.5656 46.8208C28.5564 46.5726 23.886 41.4995 24.1342 35.4901C24.3824 29.4807 29.4552 24.8111 35.4643 25.0593C41.4725 25.3073 46.144 30.3794 45.8958 36.3889C45.8083 38.5072 45.1212 40.4592 44.0049 42.088L51.3415 49.2115C52.2467 50.1929 52.2143 51.7099 51.2843 52.6499L51.2415 52.6893L51.1963 52.7284C50.1853 53.5779 48.6707 53.4868 47.7664 52.5046L41.0141 45.0292ZM34.6693 44.309C30.0471 44.1181 26.4543 40.2157 26.6452 35.5935C26.8361 30.9713 30.7384 27.3785 35.3607 27.5694C39.9829 27.7603 43.5758 31.6626 43.3849 36.2848C43.194 40.9071 39.2916 44.4999 34.6693 44.309Z" fill="white"/>
</g>
</g>
<defs>
<clipPath id="clip0_1_253">
<rect width="75.5938" height="75.5938" fill="white" transform="translate(0.460205 0.859375)"/>
</clipPath>
<clipPath id="clip1_1_253">
<rect width="75.5938" height="75.5938" fill="white" transform="translate(0.460205 0.859375)"/>
</clipPath>
</defs>
</svg>
