<svg width="109" height="123" viewBox="0 0 109 123" fill="none" xmlns="http://www.w3.org/2000/svg">
<rect x="0.411057" y="0.484375" width="8.84615" height="10" rx="4.42308" fill="#81818B" fill-opacity="0.2"/>
<rect x="14.5649" y="0.484375" width="8.84615" height="10" rx="4.42308" fill="#81818B" fill-opacity="0.2"/>
<rect x="28.7188" y="0.484375" width="8.84615" height="10" rx="4.42308" fill="#81818B" fill-opacity="0.2"/>
<rect x="42.8726" y="0.484375" width="8.84615" height="10" rx="4.42308" fill="#81818B" fill-opacity="0.2"/>
<rect x="57.0264" y="0.484375" width="8.84615" height="10" rx="4.42308" fill="#81818B" fill-opacity="0.2"/>
<rect x="71.1803" y="0.484375" width="8.84615" height="10" rx="4.42308" fill="#81818B" fill-opacity="0.2"/>
<rect x="85.3341" y="0.484375" width="8.84615" height="10" rx="4.42308" fill="#81818B" fill-opacity="0.2"/>
<rect x="99.488" y="0.484375" width="8.84615" height="10" rx="4.42308" fill="#81818B" fill-opacity="0.2"/>
<rect x="0.411057" y="16.4844" width="8.84615" height="10" rx="4.42308" fill="#81818B" fill-opacity="0.2"/>
<rect x="14.5649" y="16.4844" width="8.84615" height="10" rx="4.42308" fill="#81818B" fill-opacity="0.2"/>
<rect x="28.7188" y="16.4844" width="8.84615" height="10" rx="4.42308" fill="#81818B" fill-opacity="0.2"/>
<rect x="42.8726" y="16.4844" width="8.84615" height="10" rx="4.42308" fill="#81818B" fill-opacity="0.2"/>
<rect x="57.0264" y="16.4844" width="8.84615" height="10" rx="4.42308" fill="#81818B" fill-opacity="0.2"/>
<rect x="71.1803" y="16.4844" width="8.84615" height="10" rx="4.42308" fill="#81818B" fill-opacity="0.2"/>
<rect x="85.3341" y="16.4844" width="8.84615" height="10" rx="4.42308" fill="#81818B" fill-opacity="0.2"/>
<rect x="99.488" y="16.4844" width="8.84615" height="10" rx="4.42308" fill="#81818B" fill-opacity="0.2"/>
<rect x="0.411057" y="32.4844" width="8.84615" height="10" rx="4.42308" fill="#81818B" fill-opacity="0.2"/>
<rect x="14.5649" y="32.4844" width="8.84615" height="10" rx="4.42308" fill="#81818B" fill-opacity="0.2"/>
<rect x="28.7188" y="32.4844" width="8.84615" height="10" rx="4.42308" fill="#81818B" fill-opacity="0.2"/>
<rect x="42.8726" y="32.4844" width="8.84615" height="10" rx="4.42308" fill="#81818B" fill-opacity="0.2"/>
<rect x="57.0264" y="32.4844" width="8.84615" height="10" rx="4.42308" fill="#81818B" fill-opacity="0.2"/>
<rect x="71.1803" y="32.4844" width="8.84615" height="10" rx="4.42308" fill="#81818B" fill-opacity="0.2"/>
<rect x="85.3341" y="32.4844" width="8.84615" height="10" rx="4.42308" fill="#81818B" fill-opacity="0.2"/>
<rect x="99.488" y="32.4844" width="8.84615" height="10" rx="4.42308" fill="#81818B" fill-opacity="0.2"/>
<rect x="0.411057" y="48.4844" width="8.84615" height="10" rx="4.42308" fill="#81818B" fill-opacity="0.2"/>
<rect x="14.5649" y="48.4844" width="8.84615" height="10" rx="4.42308" fill="#81818B" fill-opacity="0.2"/>
<rect x="28.7188" y="48.4844" width="8.84615" height="10" rx="4.42308" fill="#81818B" fill-opacity="0.2"/>
<rect x="42.8726" y="48.4844" width="8.84615" height="10" rx="4.42308" fill="#81818B" fill-opacity="0.2"/>
<rect x="57.0264" y="48.4844" width="8.84615" height="10" rx="4.42308" fill="#81818B" fill-opacity="0.2"/>
<rect x="71.1803" y="48.4844" width="8.84615" height="10" rx="4.42308" fill="#81818B" fill-opacity="0.2"/>
<rect x="85.3341" y="48.4844" width="8.84615" height="10" rx="4.42308" fill="#81818B" fill-opacity="0.2"/>
<rect x="99.488" y="48.4844" width="8.84615" height="10" rx="4.42308" fill="#81818B" fill-opacity="0.2"/>
<rect x="0.411057" y="64.4844" width="8.84615" height="10" rx="4.42308" fill="#81818B" fill-opacity="0.2"/>
<rect x="14.5649" y="64.4844" width="8.84615" height="10" rx="4.42308" fill="#81818B" fill-opacity="0.2"/>
<rect x="28.7188" y="64.4844" width="8.84615" height="10" rx="4.42308" fill="#81818B" fill-opacity="0.2"/>
<rect x="42.8726" y="64.4844" width="8.84615" height="10" rx="4.42308" fill="#81818B" fill-opacity="0.2"/>
<rect x="57.0264" y="64.4844" width="8.84615" height="10" rx="4.42308" fill="#81818B" fill-opacity="0.2"/>
<rect x="71.1803" y="64.4844" width="8.84615" height="10" rx="4.42308" fill="#81818B" fill-opacity="0.2"/>
<rect x="85.3341" y="64.4844" width="8.84615" height="10" rx="4.42308" fill="#81818B" fill-opacity="0.2"/>
<rect x="99.488" y="64.4844" width="8.84615" height="10" rx="4.42308" fill="#81818B" fill-opacity="0.2"/>
<rect x="0.411057" y="80.4844" width="8.84615" height="10" rx="4.42308" fill="#81818B" fill-opacity="0.2"/>
<rect x="14.5649" y="80.4844" width="8.84615" height="10" rx="4.42308" fill="#81818B" fill-opacity="0.2"/>
<rect x="28.7188" y="80.4844" width="8.84615" height="10" rx="4.42308" fill="#81818B" fill-opacity="0.2"/>
<rect x="42.8726" y="80.4844" width="8.84615" height="10" rx="4.42308" fill="#81818B" fill-opacity="0.2"/>
<rect x="57.0264" y="80.4844" width="8.84615" height="10" rx="4.42308" fill="#81818B" fill-opacity="0.2"/>
<rect x="71.1803" y="80.4844" width="8.84615" height="10" rx="4.42308" fill="#81818B" fill-opacity="0.2"/>
<rect x="85.3341" y="80.4844" width="8.84615" height="10" rx="4.42308" fill="#81818B" fill-opacity="0.2"/>
<rect x="99.488" y="80.4844" width="8.84615" height="10" rx="4.42308" fill="#81818B" fill-opacity="0.2"/>
<rect x="0.411057" y="96.4844" width="8.84615" height="10" rx="4.42308" fill="#81818B" fill-opacity="0.2"/>
<rect x="14.5649" y="96.4844" width="8.84615" height="10" rx="4.42308" fill="#81818B" fill-opacity="0.2"/>
<rect x="28.7188" y="96.4844" width="8.84615" height="10" rx="4.42308" fill="#81818B" fill-opacity="0.2"/>
<rect x="42.8726" y="96.4844" width="8.84615" height="10" rx="4.42308" fill="#81818B" fill-opacity="0.2"/>
<rect x="57.0264" y="96.4844" width="8.84615" height="10" rx="4.42308" fill="#81818B" fill-opacity="0.2"/>
<rect x="71.1803" y="96.4844" width="8.84615" height="10" rx="4.42308" fill="#81818B" fill-opacity="0.2"/>
<rect x="85.3341" y="96.4844" width="8.84615" height="10" rx="4.42308" fill="#81818B" fill-opacity="0.2"/>
<rect x="99.488" y="96.4844" width="8.84615" height="10" rx="4.42308" fill="#81818B" fill-opacity="0.2"/>
<rect x="0.411057" y="112.484" width="8.84615" height="10" rx="4.42308" fill="#81818B" fill-opacity="0.2"/>
<rect x="14.5649" y="112.484" width="8.84615" height="10" rx="4.42308" fill="#81818B" fill-opacity="0.2"/>
<rect x="28.7188" y="112.484" width="8.84615" height="10" rx="4.42308" fill="#81818B" fill-opacity="0.2"/>
<rect x="42.8726" y="112.484" width="8.84615" height="10" rx="4.42308" fill="#81818B" fill-opacity="0.2"/>
<rect x="57.0264" y="112.484" width="8.84615" height="10" rx="4.42308" fill="#81818B" fill-opacity="0.2"/>
<rect x="71.1803" y="112.484" width="8.84615" height="10" rx="4.42308" fill="#81818B" fill-opacity="0.2"/>
<rect x="85.3341" y="112.484" width="8.84615" height="10" rx="4.42308" fill="#81818B" fill-opacity="0.2"/>
<rect x="99.488" y="112.484" width="8.84615" height="10" rx="4.42308" fill="#81818B" fill-opacity="0.2"/>
</svg>
