<svg width="148" height="40" fill="none" xmlns="http://www.w3.org/2000/svg"><path d="M57.705 17.39a3.403 3.403 0 00-1.505-1.45c-.638-.347-1.396-.52-2.271-.52-1.515 0-2.728.501-3.64 1.504-.912.986-1.368 2.308-1.368 3.969 0 1.77.474 3.156 1.423 4.16.967.985 2.29 1.477 3.968 1.477 1.15 0 2.116-.292 2.9-.876.804-.584 1.387-1.423 1.752-2.517h-5.938v-3.449h10.18v4.352c-.347 1.167-.94 2.253-1.779 3.256-.82 1.004-1.87 1.816-3.147 2.436-1.277.62-2.718.93-4.324.93-1.897 0-3.594-.41-5.09-1.231a9.086 9.086 0 01-3.476-3.476c-.82-1.477-1.231-3.165-1.231-5.062 0-1.898.41-3.585 1.231-5.063a8.843 8.843 0 013.476-3.476c1.478-.84 3.165-1.259 5.063-1.259 2.299 0 4.232.557 5.801 1.67 1.588 1.112 2.637 2.654 3.148 4.625h-5.173zm12.773.41a6.044 6.044 0 012.053-1.97c.82-.493 1.733-.74 2.736-.74v4.954h-1.286c-1.168 0-2.043.256-2.627.767-.584.492-.876 1.368-.876 2.627v7.088h-4.68V15.255h4.68V17.8zm13.977 12.945c-1.496 0-2.846-.32-4.05-.958a7.129 7.129 0 01-2.819-2.737c-.675-1.186-1.013-2.572-1.013-4.16 0-1.569.347-2.946 1.04-4.132a7.032 7.032 0 012.847-2.764c1.204-.639 2.554-.958 4.05-.958s2.846.32 4.05.958a7.031 7.031 0 012.846 2.764c.694 1.186 1.04 2.563 1.04 4.132 0 1.57-.355 2.956-1.067 4.16a7.038 7.038 0 01-2.874 2.737c-1.204.638-2.554.958-4.05.958zm0-4.05c.894 0 1.651-.33 2.272-.986.638-.657.957-1.596.957-2.819 0-1.222-.31-2.162-.93-2.818a2.92 2.92 0 00-2.244-.986c-.912 0-1.67.329-2.272.986-.602.638-.903 1.578-.903 2.818 0 1.223.292 2.162.876 2.82.602.656 1.35.984 2.244.984zm32.394-11.44l-4.132 15.27h-5.173l-2.407-9.906-2.491 9.907h-5.145l-4.16-15.271h4.68l2.162 10.92 2.573-10.92h4.953l2.599 10.865 2.135-10.865h4.406zm9.448 3.886h-2.518v11.385H119.1V19.14h-1.697v-3.886h1.697v-.438c0-1.879.537-3.302 1.614-4.27 1.077-.984 2.655-1.477 4.735-1.477.346 0 .602.01.766.028v3.968c-.894-.055-1.523.073-1.888.383-.366.31-.548.866-.548 1.67v.136h2.518v3.886zm17.798-3.886l-9.579 22.523h-5.035l3.503-7.772-6.212-14.751h5.227l3.53 9.551 3.503-9.551h5.063z" fill="#fff"/><path d="M23.257 12.632a7.368 7.368 0 017.368-7.368h7.368v7.368a7.368 7.368 0 11-14.736 0z" fill="#FF6D35"/><path d="M30.625 37.677a7.368 7.368 0 01-7.368-7.368v-7.368h7.368a7.368 7.368 0 110 14.736z" fill="#5CC97B"/><path d="M20.935 20.652c0-8.177-6.126-14.805-13.683-14.805V30.02c0 4.089 3.063 7.403 6.842 7.403 3.778 0 6.841-3.314 6.841-7.403v-9.369z" fill="#3D96F4"/></svg>