<svg width="132" height="47" fill="none" xmlns="http://www.w3.org/2000/svg"><path fill="#1AA090" d="M0 0h32v31H0z"/><path d="M15.798 38V9.636h10.636c2.179 0 4.007.379 5.484 1.136 1.487.757 2.609 1.819 3.366 3.185.766 1.358 1.15 2.941 1.15 4.75 0 1.82-.389 3.398-1.164 4.737-.766 1.33-1.898 2.36-3.393 3.089-1.496.72-3.333 1.08-5.512 1.08h-7.576v-4.266h6.883c1.274 0 2.318-.175 3.13-.526.813-.36 1.413-.882 1.8-1.565.398-.692.596-1.542.596-2.548 0-1.007-.198-1.865-.595-2.576-.397-.72-1.002-1.265-1.815-1.635-.812-.378-1.86-.567-3.143-.567h-4.71V38h-5.137zM30.45 25.148L37.472 38h-5.734l-6.897-12.852h5.61zm19.604 13.268c-2.133 0-3.975-.444-5.526-1.33-1.542-.896-2.728-2.16-3.56-3.795-.83-1.643-1.246-3.578-1.246-5.803 0-2.188.416-4.108 1.247-5.761.84-1.662 2.013-2.955 3.518-3.878 1.505-.933 3.273-1.399 5.304-1.399 1.311 0 2.548.213 3.712.637a8.387 8.387 0 013.102 1.94c.905.876 1.616 1.994 2.133 3.35.517 1.349.775 2.955.775 4.82v1.538H42.077v-3.38h12.63c-.009-.96-.216-1.814-.623-2.562a4.531 4.531 0 00-1.703-1.786c-.72-.434-1.56-.651-2.52-.651-1.026 0-1.926.25-2.701.748a5.153 5.153 0 00-1.815 1.939 5.58 5.58 0 00-.65 2.617v2.95c0 1.237.226 2.3.678 3.186.453.877 1.085 1.55 1.897 2.022.813.461 1.764.692 2.853.692.73 0 1.39-.102 1.98-.305a4.395 4.395 0 001.538-.928c.434-.406.762-.91.983-1.51l4.682.527a7.298 7.298 0 01-1.69 3.24c-.822.915-1.874 1.626-3.158 2.134-1.283.498-2.751.748-4.404.748zm18.714-12.88V38h-5.013V16.727h4.792v3.615h.249a6.08 6.08 0 012.34-2.84c1.08-.7 2.415-1.052 4.003-1.052 1.468 0 2.747.314 3.836.942 1.099.628 1.948 1.537 2.549 2.728.609 1.191.909 2.636.9 4.335V38H77.41V25.23c0-1.421-.37-2.534-1.108-3.337-.73-.803-1.74-1.205-3.033-1.205-.877 0-1.657.194-2.34.582-.674.378-1.205.928-1.593 1.648-.379.72-.568 1.593-.568 2.617zm29.375-8.809v3.878h-12.23v-3.878h12.23zm-9.21-5.096h5.013V31.6c0 .675.102 1.192.305 1.552.212.35.49.59.831.72.342.13.72.194 1.136.194.314 0 .6-.023.858-.07a7.5 7.5 0 00.61-.124l.845 3.92c-.268.092-.651.193-1.15.304-.49.11-1.09.175-1.8.194-1.256.037-2.387-.152-3.393-.568a5.278 5.278 0 01-2.396-1.967c-.582-.886-.868-1.994-.859-3.324v-20.8zM102.336 38V16.727h5.013V38h-5.013zm2.52-24.292a2.922 2.922 0 01-2.049-.79c-.573-.535-.859-1.176-.859-1.924 0-.758.286-1.4.859-1.925a2.894 2.894 0 012.049-.804c.804 0 1.487.268 2.05.804.573.526.859 1.167.859 1.925 0 .748-.286 1.39-.859 1.925-.563.526-1.246.79-2.05.79zM112.228 38v-3.185l10.968-13.753v-.18h-10.608v-4.155h16.744v3.421l-10.443 13.517v.18h10.803V38h-17.464z" fill="#fff"/></svg>