<svg width="159" height="30" fill="none" xmlns="http://www.w3.org/2000/svg"><path d="M3.976 3.296C6.13 1.334 9.056.189 12.02.046c1.015 0 2.032.006 3.047-.003-.052 1.038 0 2.078-.03 3.116a11.143 11.143 0 01-2.557 6.406c-1.968 2.447-4.979 4.09-8.175 4.514-1.395.215-2.812.078-4.217.116.025-1.142-.052-2.287.043-3.427.274-2.825 1.673-5.53 3.845-7.472zM16.007.043c1.087.012 2.175-.006 3.266.006 2.715.183 5.393 1.177 7.437 2.9 2.255 1.846 3.8 4.485 4.196 7.305.174 1.308.064 2.63.131 3.944-.95-.003-1.898-.006-2.849 0-2.337-.061-4.634-.782-6.59-1.997-.902-.616-1.828-1.24-2.505-2.096a11.278 11.278 0 01-2.873-5.658c-.287-1.454-.17-2.936-.213-4.404zM.09 15.03c.966.051 1.935-.045 2.898.057 4.122.084 8.123 2.293 10.259 5.656 1.225 1.884 1.883 4.116 1.798 6.333-.003.727.009 1.45-.012 2.175-1.53-.044-3.075.075-4.59-.207-3.363-.54-6.456-2.45-8.317-5.176a11.193 11.193 0 01-2.042-6.796c0-.683 0-1.363.006-2.043zm25.799.307c1.658-.352 3.366-.294 5.052-.294l.073.07c-.037 1.52.088 3.058-.231 4.56-.674 3.372-3.014 6.383-6.162 8.037-1.959 1.04-4.207 1.552-6.447 1.529-.716.003-1.435-.012-2.151.008 0-1.258-.055-2.522.094-3.775.348-3.032 2.066-5.854 4.537-7.76a13.123 13.123 0 015.235-2.375zm17.633 8.284c0 .512-.186.945-.556 1.299-.352.335-.795.502-1.331.502-.516 0-.95-.167-1.3-.502a1.776 1.776 0 01-.526-1.299V5.378c0-.512.175-.935.526-1.27a1.899 1.899 0 011.362-.531c.536 0 .969.177 1.3.531.35.335.525.758.525 1.27V23.62zM58.428 9.628c.536 0 .98.178 1.33.532.351.334.526.757.526 1.27v7.497c0 2.086-.608 3.74-1.825 4.96-1.218 1.22-2.971 1.83-5.262 1.83-2.29 0-4.043-.61-5.26-1.83-1.197-1.22-1.795-2.874-1.795-4.96V11.43c0-.512.175-.935.526-1.27.35-.354.794-.53 1.33-.53.538 0 .98.177 1.331.53.352.335.527.758.527 1.27v7.498c0 1.2.279 2.096.835 2.687.557.57 1.393.856 2.506.856 1.136 0 1.981-.286 2.539-.856.556-.59.835-1.486.835-2.687V11.43c0-.512.175-.935.526-1.27.35-.354.794-.53 1.331-.53zm13.026-.295c1.65 0 2.867.384 3.652 1.152.784.747 1.3 1.722 1.547 2.922l-.526-.266.248-.472c.247-.453.629-.935 1.145-1.447a6.624 6.624 0 011.856-1.328c.743-.374 1.568-.56 2.476-.56 1.486 0 2.61.304 3.373.914.784.61 1.32 1.427 1.61 2.45.289 1.004.433 2.126.433 3.366v7.557c0 .512-.175.945-.527 1.299-.35.335-.793.502-1.33.502-.536 0-.98-.167-1.33-.502a1.776 1.776 0 01-.527-1.299v-7.557c0-.65-.082-1.23-.247-1.742a2.41 2.41 0 00-.898-1.27c-.433-.314-1.052-.472-1.856-.472-.785 0-1.455.158-2.012.473-.558.315-.98.738-1.27 1.27-.267.51-.402 1.091-.402 1.74v7.558c0 .512-.175.945-.525 1.299-.351.335-.795.502-1.331.502-.537 0-.98-.167-1.33-.502a1.775 1.775 0 01-.527-1.299v-7.557c0-.65-.083-1.23-.248-1.742a2.406 2.406 0 00-.897-1.27c-.433-.314-1.053-.472-1.857-.472-.784 0-1.454.158-2.012.473-.556.315-.98.738-1.268 1.27-.269.51-.402 1.091-.402 1.74v7.558c0 .512-.176.945-.526 1.299-.352.335-.795.502-1.331.502-.537 0-.98-.167-1.331-.502a1.776 1.776 0 01-.526-1.299V11.43c0-.511.175-.935.526-1.27.351-.353.794-.53 1.33-.53.537 0 .98.177 1.331.53.351.335.527.758.527 1.27v1.27l-.465-.089c.186-.335.444-.689.774-1.063.33-.393.732-.758 1.207-1.092.474-.335 1-.6 1.578-.797a5.342 5.342 0 011.888-.325zm21.783 14.288c0 .512-.176.945-.527 1.299-.35.335-.794.502-1.33.502s-.98-.167-1.331-.502a1.778 1.778 0 01-.526-1.299V11.43c0-.511.176-.935.526-1.27.35-.353.795-.53 1.33-.53.537 0 .98.177 1.331.53.351.335.527.758.527 1.27v12.192zM91.349 7.71c-.702 0-1.197-.109-1.486-.325-.288-.217-.433-.6-.433-1.151v-.561c0-.571.155-.955.464-1.152.33-.216.826-.324 1.486-.324.722 0 1.228.108 1.516.324.29.217.433.6.433 1.152v.56c0 .571-.154.965-.464 1.181-.309.197-.815.296-1.516.296zm13.008 1.623c1.526 0 2.682.305 3.466.915.804.61 1.351 1.427 1.64 2.45.31 1.004.464 2.126.464 3.366v7.557c0 .512-.175.945-.526 1.299-.351.335-.795.502-1.331.502-.536 0-.98-.167-1.33-.502a1.772 1.772 0 01-.527-1.299v-7.557c0-.65-.092-1.23-.278-1.742a2.352 2.352 0 00-.929-1.27c-.453-.314-1.104-.472-1.949-.472-.826 0-1.527.158-2.104.473-.558.315-.99.738-1.3 1.27-.29.51-.434 1.091-.434 1.74v7.558c0 .512-.175.945-.526 1.299-.35.335-.794.502-1.33.502-.537 0-.98-.167-1.33-.502a1.775 1.775 0 01-.527-1.299V11.43c0-.511.175-.935.526-1.27.35-.353.794-.53 1.33-.53.537 0 .98.177 1.331.53.351.335.526.758.526 1.27v1.27l-.464-.089c.186-.335.454-.689.805-1.063.35-.393.764-.758 1.238-1.092a6.052 6.052 0 011.609-.797 5.689 5.689 0 011.95-.325zM128.3 17.54c0 1.614-.381 3.04-1.145 4.28a7.822 7.822 0 01-3.033 2.864c-1.258.689-2.671 1.033-4.239 1.033s-2.992-.344-4.271-1.033a8.129 8.129 0 01-3.033-2.864c-.742-1.24-1.114-2.666-1.114-4.28 0-1.614.372-3.03 1.114-4.251a8.056 8.056 0 013.033-2.893c1.279-.709 2.703-1.063 4.271-1.063s2.981.354 4.239 1.063a7.756 7.756 0 013.033 2.893c.764 1.22 1.145 2.637 1.145 4.25zm-3.713 0c0-1.004-.217-1.87-.651-2.598a4.418 4.418 0 00-1.702-1.742c-.7-.413-1.485-.62-2.351-.62-.867 0-1.661.207-2.383.62a4.716 4.716 0 00-1.702 1.742c-.413.728-.62 1.594-.62 2.598 0 .984.207 1.85.62 2.598a4.79 4.79 0 001.702 1.712 4.71 4.71 0 002.383.62c.866 0 1.651-.207 2.351-.62a4.473 4.473 0 001.702-1.712c.434-.748.651-1.614.651-2.598zm17.554-7.912c.537 0 .981.178 1.331.532.351.334.526.757.526 1.27v7.497c0 2.086-.608 3.74-1.826 4.96-1.217 1.22-2.97 1.83-5.261 1.83-2.29 0-4.043-.61-5.261-1.83-1.196-1.22-1.795-2.874-1.795-4.96V11.43c0-.512.176-.935.527-1.27.351-.354.794-.53 1.33-.53.537 0 .98.177 1.331.53.351.335.526.758.526 1.27v7.498c0 1.2.278 2.096.836 2.687.557.57 1.392.856 2.506.856 1.135 0 1.981-.286 2.538-.856.557-.59.836-1.486.836-2.687V11.43c0-.512.175-.935.526-1.27.35-.354.794-.53 1.33-.53zm3.371 13.344c-.206-.276-.299-.63-.278-1.063.02-.433.288-.807.804-1.122.33-.197.681-.275 1.053-.236.37.02.731.197 1.083.531a7.276 7.276 0 001.888 1.329c.659.315 1.485.472 2.475.472.31-.02.649-.059 1.021-.118a2.07 2.07 0 00.959-.472c.289-.256.434-.64.434-1.152 0-.433-.155-.777-.465-1.033-.309-.256-.722-.472-1.238-.65a18.547 18.547 0 00-1.67-.501 54.271 54.271 0 01-1.981-.59 8.92 8.92 0 01-1.826-.827 4.274 4.274 0 01-1.362-1.388c-.35-.57-.525-1.289-.525-2.155 0-.984.288-1.82.866-2.509.578-.689 1.32-1.22 2.228-1.594a7.716 7.716 0 012.909-.56c.639 0 1.31.078 2.012.235a7.386 7.386 0 012.011.709 4.76 4.76 0 011.609 1.27c.227.294.361.649.403 1.062.041.413-.155.787-.589 1.122a1.6 1.6 0 01-1.083.325c-.412-.04-.753-.178-1.021-.414-.351-.433-.825-.777-1.423-1.033-.578-.256-1.249-.384-2.012-.384-.309 0-.649.04-1.021.118-.351.06-.66.207-.928.443-.269.217-.403.57-.403 1.063 0 .453.155.817.465 1.092.309.256.722.472 1.238.65.536.157 1.103.314 1.702.472.618.157 1.248.344 1.887.56a7.65 7.65 0 011.764.857c.537.354.97.817 1.3 1.387.33.551.495 1.26.495 2.126 0 1.003-.309 1.86-.929 2.568-.618.709-1.392 1.25-2.32 1.624a7.927 7.927 0 01-2.848.53c-1.217 0-2.434-.196-3.651-.59a6.404 6.404 0 01-3.033-2.154z" fill="#81818B"/></svg>