<svg width="164" height="35" fill="none" xmlns="http://www.w3.org/2000/svg"><path d="M.274 23.394l11.66-5.053 6.711 3.79 1.356 12.433-8.27-.066 1.22-8.644-1.424-.798-6.982 5.32-4.27-6.982zm19.117-1.795l10.304 7.38 4.067-7.114-8.27-3.258V17.01l8.27-3.324-4.067-7.048-10.304 7.38v7.58zm-.746-8.179L20.001.989l-8.27.133 1.22 8.643-1.424.798-7.05-5.319-4.203 6.915 11.66 5.053 6.711-3.79zm42.708 2.866v11.648h4.45V13.089h-6.48v3.197h2.03zm-.139-5.282c.408.415 1.03.623 1.864.623.835 0 1.447-.208 1.835-.623.409-.434.613-.976.613-1.626 0-.668-.204-1.21-.612-1.625-.39-.433-1.001-.65-1.836-.65-.835 0-1.456.217-1.864.65-.39.415-.584.957-.584 1.625 0 .65.195 1.192.584 1.626zM45.858 27.609c1.261.56 2.81.84 4.645.84 1.725 0 3.209-.263 4.452-.786 1.242-.524 2.198-1.255 2.865-2.194.686-.957 1.03-2.068 1.03-3.332 0-1.228-.325-2.267-.974-3.115-.631-.867-1.512-1.544-2.643-2.032-1.131-.506-2.44-.822-3.923-.948l-1.557-.135c-.928-.073-1.595-.316-2.003-.732a2.015 2.015 0 01-.612-1.462c0-.434.111-.831.333-1.192.223-.38.556-.678 1.002-.894.464-.217 1.03-.325 1.697-.325.704 0 1.289.126 1.752.379.102.053.2.11.29.171l.022.015.1.07c.282.21.507.459.674.746.24.398.361.84.361 1.328h4.45c0-1.3-.305-2.43-.917-3.386-.612-.976-1.492-1.725-2.642-2.249-1.132-.542-2.495-.813-4.09-.813-1.521 0-2.838.253-3.95.759-1.113.488-1.985 1.192-2.615 2.113-.613.92-.919 2.013-.919 3.278 0 1.751.603 3.16 1.809 4.225 1.205 1.066 2.819 1.68 4.84 1.842l1.53.136c1.243.108 2.143.352 2.7.73.555.362.833.859.833 1.49 0 .291-.049.564-.146.818a2.235 2.235 0 01-.298.537c-.298.38-.733.677-1.308.894-.575.217-1.289.325-2.143.325-.945 0-1.715-.126-2.308-.38-.594-.27-1.038-.622-1.336-1.055a2.563 2.563 0 01-.416-1.41h-4.424c0 1.283.324 2.421.973 3.414.65.975 1.605 1.752 2.866 2.33zm29.877.514c-1.54 0-2.782-.18-3.728-.542-.946-.378-1.64-1.002-2.086-1.869-.426-.884-.64-2.076-.64-3.575v-5.878h-2.309v-3.17h2.309V9.081h4.145v4.008h4.451v3.17h-4.451v6.04c0 .705.186 1.247.556 1.625.39.362.937.542 1.642.542h2.253v3.657h-2.142z" fill="#81818B"/><path fill-rule="evenodd" clip-rule="evenodd" d="M83.237 27.798c1 .434 2.151.65 3.449.65 1.28 0 2.411-.216 3.394-.65.983-.433 1.8-1.038 2.448-1.814a6.191 6.191 0 001.307-2.655h-4.089c-.185.451-.538.83-1.057 1.137-.519.307-1.187.461-2.003.461-.506 0-.957-.058-1.355-.175a3.063 3.063 0 01-.815-.367 3.15 3.15 0 01-1.224-1.517 5.14 5.14 0 01-.186-.58 5.884 5.884 0 01-.127-.639h11.135v-1.463c0-1.354-.297-2.6-.89-3.738a7.015 7.015 0 00-2.588-2.79c-1.113-.722-2.485-1.083-4.117-1.083-1.243 0-2.356.216-3.339.65-.964.415-1.77.984-2.42 1.706a7.876 7.876 0 00-1.502 2.466c-.334.902-.5 1.85-.5 2.844v.541c0 .958.166 1.897.5 2.818a8.31 8.31 0 001.503 2.465c.667.722 1.492 1.3 2.476 1.733zm-.182-8.827a4.632 4.632 0 01.265-.843c.278-.668.686-1.174 1.224-1.517a3.05 3.05 0 01.652-.313 4.072 4.072 0 011.323-.202c.76 0 1.39.172 1.891.515.52.325.91.803 1.17 1.436a4.779 4.779 0 01.307 1.137h-6.875a5.27 5.27 0 01.043-.213z" fill="#81818B"/><path d="M95.95 27.934V13.089h3.534v3.74a7.302 7.302 0 01.333-1.138c.39-1.013.974-1.77 1.753-2.277.779-.523 1.734-.785 2.865-.785h.195c1.15 0 2.104.262 2.865.785.779.506 1.364 1.264 1.753 2.276l.031.076.026.07c.017-.05.036-.098.054-.146.408-1.011 1.002-1.77 1.781-2.276.778-.523 1.734-.785 2.865-.785h.195c1.149 0 2.114.262 2.893.785.797.506 1.4 1.264 1.808 2.276.408 1.011.613 2.275.613 3.792v8.452h-4.452v-8.696c0-.812-.223-1.471-.668-1.977-.426-.506-1.038-.758-1.835-.758-.798 0-1.429.262-1.892.785-.464.506-.696 1.183-.696 2.032v8.614h-4.479v-8.696c0-.812-.222-1.471-.667-1.977-.427-.506-1.03-.758-1.808-.758-.817 0-1.456.262-1.92.785-.464.506-.696 1.183-.696 2.032v8.614h-4.45z" fill="#81818B"/><path fill-rule="evenodd" clip-rule="evenodd" d="M131.403 25.074v2.86h3.533v-9.102c0-1.372-.278-2.492-.835-3.359-.556-.885-1.372-1.544-2.447-1.977-1.057-.434-2.365-.65-3.923-.65a54.087 54.087 0 00-1.725.027c-.612.018-1.206.045-1.78.081l-.44.029a72.82 72.82 0 00-1.062.08v3.656a160.955 160.955 0 012.505-.136 82.766 82.766 0 013.086-.08c.816 0 1.409.19 1.781.569.371.379.556.948.556 1.706v.054h-2.754c-1.354 0-2.55.172-3.589.515-1.039.325-1.846.84-2.42 1.544-.575.686-.862 1.571-.862 2.655 0 .993.231 1.85.695 2.573.464.704 1.103 1.246 1.919 1.625.835.38 1.8.57 2.893.57 1.058 0 1.948-.19 2.672-.57a4.112 4.112 0 001.724-1.625 5.14 5.14 0 00.437-.94l.036-.105zm-.751-2.639v-1.192h-2.782c-.779 0-1.381.19-1.808.569-.408.361-.612.858-.612 1.49 0 .297.051.568.152.811.102.245.256.462.46.651.427.362 1.029.542 1.808.542a3.571 3.571 0 00.759-.07c.204-.04.396-.098.577-.174.407-.18.741-.478 1.001-.894.26-.415.408-.993.445-1.733z" fill="#81818B"/><path d="M137.6 27.934V13.09h3.533v4.9c.169-1.399.596-2.526 1.279-3.383.928-1.137 2.263-1.706 4.007-1.706h.584v3.738h-1.113c-1.224 0-2.17.325-2.838.975-.667.632-1.001 1.553-1.001 2.763v7.558H137.6zM152.647 21h1.475l4.812 6.934h5.008l-6.103-8.517 5.017-6.327h-4.673l-5.536 7.058V8.16h-4.451v19.774h4.451V21z" fill="#81818B"/></svg>