<svg width="167" height="39" fill="none" xmlns="http://www.w3.org/2000/svg"><path d="M49.349 10.8c1.587 0 2.961.256 4.122.767 1.178.511 2.082 1.236 2.713 2.176.632.94.948 2.053.948 3.339 0 1.269-.316 2.382-.948 3.338-.631.94-1.535 1.665-2.713 2.176-1.16.495-2.535.742-4.122.742h-3.61v4.773h-4.147V10.8h7.757zm-.23 9.274c1.245 0 2.193-.256 2.841-.767.649-.527.973-1.27.973-2.225 0-.973-.324-1.715-.973-2.226-.648-.528-1.596-.791-2.841-.791h-3.38v6.009h3.38zm13.227-3.512c.477-.643 1.117-1.129 1.919-1.459.82-.33 1.758-.494 2.816-.494v3.56a15.67 15.67 0 00-.896-.049c-1.144 0-2.04.313-2.688.94-.648.61-.973 1.533-.973 2.77v6.281h-3.993V14.807h3.815v1.755zm12.258 11.746c-1.45 0-2.756-.288-3.916-.865-1.144-.593-2.04-1.41-2.688-2.448-.648-1.039-.973-2.218-.973-3.536 0-1.32.325-2.498.973-3.537.648-1.038 1.544-1.846 2.688-2.423 1.16-.594 2.466-.89 3.916-.89 1.45 0 2.748.296 3.892.89 1.143.577 2.04 1.385 2.688 2.423.648 1.04.972 2.218.972 3.537 0 1.318-.324 2.497-.972 3.536-.649 1.038-1.545 1.855-2.688 2.448-1.144.577-2.441.865-3.892.865zm0-3.165c1.025 0 1.861-.33 2.51-.989.665-.676.997-1.574.997-2.695 0-1.121-.332-2.012-.998-2.671-.648-.676-1.484-1.014-2.509-1.014-1.023 0-1.868.338-2.534 1.014-.665.66-.998 1.55-.998 2.67 0 1.122.332 2.02.998 2.696.666.66 1.51.99 2.534.99zM100.263 10.8v17.31h-3.404L87.924 17.6v10.51h-4.096V10.8h3.43l8.91 10.51V10.8h4.095zm8.234 3.809c2.133 0 3.771.494 4.915 1.484 1.143.972 1.715 2.448 1.715 4.426v7.592h-3.737v-1.657c-.751 1.236-2.151 1.854-4.199 1.854-1.058 0-1.98-.172-2.765-.519-.768-.346-1.357-.824-1.766-1.434a3.638 3.638 0 01-.615-2.077c0-1.237.478-2.21 1.434-2.918.973-.71 2.466-1.063 4.48-1.063h3.174c0-.841-.264-1.484-.793-1.93-.53-.461-1.323-.692-2.381-.692-.734 0-1.459.116-2.176.346-.7.215-1.297.511-1.792.89l-1.434-2.695c.751-.51 1.647-.907 2.688-1.187 1.058-.28 2.142-.42 3.252-.42zm-.307 11.103c.682 0 1.288-.148 1.817-.445a2.58 2.58 0 001.126-1.36v-1.36h-2.739c-1.638 0-2.458.519-2.458 1.558 0 .494.197.89.589 1.187.41.28.964.42 1.665.42zm18.155 1.756c-.392.28-.879.494-1.459.643a7.867 7.867 0 01-1.793.197c-1.638 0-2.909-.403-3.814-1.21-.888-.809-1.331-1.996-1.331-3.562v-5.465h-2.125v-2.968h2.125v-3.24h3.994v3.24h3.43v2.968h-3.43v5.415c0 .56.144.998.435 1.311.307.297.734.445 1.28.445.631 0 1.169-.165 1.613-.494l1.075 2.72zm14.837-12.661V28.11h-3.789v-1.583a5.432 5.432 0 01-1.894 1.336 6.293 6.293 0 01-2.381.444c-1.809 0-3.243-.502-4.301-1.508-1.058-1.005-1.587-2.497-1.587-4.476v-7.517h3.994v6.948c0 2.143.93 3.215 2.79 3.215.955 0 1.724-.296 2.304-.89.58-.61.87-1.508.87-2.695v-6.578h3.994zm6.234 1.755c.478-.643 1.118-1.129 1.92-1.459.819-.33 1.758-.494 2.817-.494v3.56a15.69 15.69 0 00-.897-.049c-1.143 0-2.039.313-2.688.94-.648.61-.972 1.533-.972 2.77v6.281h-3.994V14.807h3.814v1.755zm19.197 4.946c0 .05-.025.396-.076 1.039h-10.42a3.13 3.13 0 001.331 1.953c.7.478 1.571.717 2.612.717.716 0 1.348-.098 1.894-.296a4.759 4.759 0 001.561-.99l2.125 2.226c-1.296 1.434-3.191 2.151-5.683 2.151-1.553 0-2.927-.288-4.121-.865-1.195-.593-2.117-1.41-2.766-2.448-.648-1.039-.972-2.218-.972-3.536 0-1.303.316-2.473.947-3.512a6.623 6.623 0 012.637-2.448c1.126-.594 2.381-.89 3.763-.89 1.349 0 2.569.28 3.661.84a6.157 6.157 0 012.56 2.424c.632 1.039.947 2.25.947 3.635zm-7.142-3.981c-.904 0-1.665.247-2.278.742-.615.494-.991 1.17-1.127 2.028h6.784c-.136-.841-.512-1.51-1.127-2.004-.614-.51-1.365-.766-2.252-.766z" fill="#81818B"/><path fill-rule="evenodd" clip-rule="evenodd" d="M18.849 1.16a2.024 2.024 0 00-1.968 0C12.56 3.575 9.644 8.094 9.644 13.273c0 .738.06 1.462.174 2.17a11.108 11.108 0 00-8.828.843c-.61.34-.985.967-.984 1.646.003 3.582 1.93 7.074 5.38 8.998a10.996 10.996 0 005.362 1.393 7.053 7.053 0 00-.428 2.426c0 4.025 3.378 7.288 7.545 7.288 4.166 0 7.544-3.263 7.544-7.288 0-.852-.152-1.67-.43-2.43a10.99 10.99 0 005.03-1.39c3.45-1.923 5.376-5.415 5.379-8.997a1.885 1.885 0 00-.983-1.646 11.11 11.11 0 00-8.475-.953c.102-.672.155-1.36.155-2.06 0-5.18-2.914-9.698-7.236-12.113zm-5.276 12.113c0-3.363 1.686-6.348 4.292-8.205 2.606 1.857 4.292 4.842 4.292 8.205 0 3.362-1.686 6.347-4.292 8.204-2.606-1.857-4.292-4.842-4.292-8.204zm12.04 6.301a7.025 7.025 0 015.74-.489c-.34 1.852-1.495 3.546-3.309 4.558a7.027 7.027 0 01-5.741.49c.341-1.852 1.495-3.547 3.31-4.559zM4.04 19.085a7.025 7.025 0 015.741.49c1.814 1.01 2.968 2.706 3.31 4.557a7.025 7.025 0 01-5.742-.489c-1.814-1.012-2.967-2.706-3.309-4.558zm10.208 11.664c0-1.928 1.619-3.492 3.616-3.492s3.615 1.563 3.615 3.492-1.619 3.493-3.615 3.493c-1.997 0-3.616-1.564-3.616-3.493z" fill="#81818B"/></svg>