<svg width="164" height="32" fill="none" xmlns="http://www.w3.org/2000/svg"><path d="M52.987 27.832c-2.357 0-4.44-.475-6.25-1.424-1.81-.97-3.209-2.34-4.198-4.11-.989-1.768-1.483-3.85-1.483-6.243 0-2.395.495-4.476 1.483-6.245.99-1.79 2.388-3.16 4.198-4.109 1.81-.97 3.893-1.456 6.25-1.456 1.6 0 3.01.173 4.23.518 1.242.323 2.378.841 3.409 1.553v4.691a8.599 8.599 0 00-3.188-1.682c-1.179-.367-2.525-.55-4.04-.55-1.41 0-2.684.302-3.82.906a6.563 6.563 0 00-2.651 2.523c-.653 1.1-.979 2.384-.979 3.85 0 1.489.295 2.794.884 3.915a6.418 6.418 0 002.557 2.556c1.094.604 2.357.906 3.788.906 1.304 0 2.44-.237 3.408-.712v-4.367H53.02v-3.624h8.206v10.903c-2.083 1.467-4.829 2.2-8.238 2.2zm9.347-16.016h4.608v2.233c.61-.755 1.463-1.327 2.557-1.715 1.094-.41 2.336-.615 3.725-.615v3.72c-1.453 0-2.736.227-3.851.68-1.095.453-1.852 1.143-2.273 2.07v9.157h-4.766v-15.53zm20.049 16.016c-2.904 0-5.187-.713-6.85-2.136-1.662-1.445-2.493-3.462-2.493-6.05 0-2.567.736-4.595 2.21-6.083 1.494-1.488 3.619-2.232 6.376-2.232 1.81 0 3.345.345 4.608 1.035 1.262.69 2.22 1.65 2.873 2.88.652 1.207.978 2.577.978 4.109v1.973h-12.5c.337 1.985 2.147 2.977 5.43 2.977.968 0 1.967-.086 2.998-.26 1.031-.172 1.926-.409 2.683-.71v3.429c-.736.323-1.683.582-2.84.777a20.999 20.999 0 01-3.473.29zm3.188-9.675c-.063-1.035-.442-1.833-1.136-2.394-.695-.582-1.652-.873-2.873-.873-1.199 0-2.146.291-2.84.873-.695.583-1.074 1.38-1.137 2.394h7.986zm14.284 9.675c-2.904 0-5.187-.713-6.85-2.136-1.662-1.445-2.493-3.462-2.493-6.05 0-2.567.736-4.595 2.21-6.083 1.493-1.488 3.619-2.232 6.375-2.232 1.81 0 3.346.345 4.609 1.035 1.262.69 2.22 1.65 2.872 2.88.653 1.207.979 2.577.979 4.109v1.973h-12.5c.337 1.985 2.147 2.977 5.429 2.977.969 0 1.968-.086 2.999-.26 1.031-.172 1.925-.409 2.683-.71v3.429c-.737.323-1.683.582-2.841.777a20.991 20.991 0 01-3.472.29zm3.188-9.675c-.063-1.035-.442-1.833-1.136-2.394-.695-.582-1.652-.873-2.873-.873-1.2 0-2.146.291-2.84.873-.695.583-1.073 1.38-1.137 2.394h7.986zm5.572-6.341h4.608v1.909a6.502 6.502 0 012.462-1.78 7.695 7.695 0 013.03-.614c2.063 0 3.599.571 4.609 1.715 1.031 1.121 1.547 2.642 1.547 4.562v9.738h-4.767v-9.189c0-2.005-.904-3.008-2.715-3.008-.799 0-1.546.205-2.24.614-.695.389-1.284.971-1.768 1.747v9.836h-4.766v-15.53zm20.461-2.394c-.736 0-1.357-.248-1.862-.744-.505-.496-.757-1.122-.757-1.877 0-.733.252-1.348.757-1.844a2.5 2.5 0 011.862-.776 2.5 2.5 0 011.862.776c.506.496.758 1.11.758 1.844 0 .755-.252 1.38-.758 1.877-.505.496-1.126.744-1.862.744zm-2.399 2.394h4.799v15.53h-4.799v-15.53zm12.927 16.016c-1.136 0-2.357-.13-3.661-.389-1.284-.237-2.294-.582-3.03-1.035V22.59c.841.518 1.851.938 3.03 1.262 1.178.323 2.273.485 3.283.485.862 0 1.494-.075 1.893-.226.4-.151.6-.432.6-.841a.963.963 0 00-.347-.777c-.232-.216-.59-.4-1.073-.55-.463-.173-1.242-.42-2.336-.744-1.284-.388-2.294-.777-3.03-1.165-.716-.41-1.263-.917-1.641-1.52-.358-.604-.537-1.381-.537-2.33 0-1.618.62-2.826 1.862-3.624 1.262-.82 2.967-1.23 5.114-1.23 1.051 0 2.135.12 3.251.357 1.136.215 2.009.507 2.62.873v3.721c-.611-.41-1.41-.744-2.399-1.003a10.974 10.974 0 00-2.841-.388c-.863 0-1.536.086-2.02.259-.463.172-.695.496-.695.97 0 .41.221.723.663.939.463.215 1.315.485 2.557.808l.631.162c1.326.367 2.357.777 3.093 1.23.737.431 1.252.96 1.547 1.585.316.604.474 1.37.474 2.297 0 1.424-.6 2.567-1.799 3.43-1.2.84-2.936 1.262-5.209 1.262zm8.109-24.396h4.767v10.16a6.901 6.901 0 012.43-1.683 7.286 7.286 0 012.904-.582c2.063 0 3.599.571 4.609 1.715 1.031 1.121 1.546 2.642 1.546 4.562v9.738h-4.765v-9.188c0-2.006-.906-3.01-2.715-3.01-.8 0-1.547.206-2.241.615-.695.389-1.284.971-1.768 1.747v9.836h-4.767V3.436z" fill="#81818B"/><path fill-rule="evenodd" clip-rule="evenodd" d="M24.778 8.014c0 4.11-3.25 7.442-7.26 7.442s-7.26-3.332-7.26-7.442 3.25-7.441 7.26-7.441 7.26 3.331 7.26 7.441zM.63 14.914c7.91-.546 14.803 5.524 15.445 13.649.066.841.063 1.673-.005 2.487-7.91.547-14.803-5.523-15.445-13.648a15.366 15.366 0 01.005-2.487zm20.558 15.852c7.926-.658 13.848-7.724 13.315-15.831a14.259 14.259 0 00-2.427-.005c-7.926.658-13.848 7.724-13.315 15.831.795.07 1.605.073 2.427.005z" fill="#81818B"/></svg>