<svg width="161" height="35" fill="none" xmlns="http://www.w3.org/2000/svg"><path fill-rule="evenodd" clip-rule="evenodd" d="M6.696 9.236c2.74-3.502 7.129-5.771 12.074-5.771 4.975 0 9.386 2.296 12.123 5.833a4.184 4.184 0 00-.319.35c-.501.617-.878 1.411-1.18 2.218-.609 1.623-1.073 3.742-1.503 5.727l-.038.179c-.43 1.981-.828 3.824-1.31 5.192-.216.614-.421 1.049-.604 1.327-.19-.28-.405-.72-.633-1.343-.516-1.408-.95-3.322-1.409-5.365l-.015-.067c-.441-1.963-.91-4.046-1.494-5.64-.293-.801-.653-1.588-1.124-2.2-.462-.599-1.232-1.276-2.357-1.276-1.118 0-1.89.67-2.36 1.263-.48.607-.854 1.39-1.162 2.192-.621 1.613-1.129 3.724-1.601 5.712l-.049.205c-.468 1.969-.905 3.81-1.401 5.18-.19.524-.369.922-.53 1.206a8.033 8.033 0 01-.517-1.197c-.477-1.342-.894-3.13-1.342-5.053l-.078-.336c-.464-1.989-.968-4.103-1.598-5.722-.312-.804-.695-1.592-1.19-2.202a4.135 4.135 0 00-.383-.412zm-1.659 2.69c.13.244.269.548.412.915.545 1.4 1.006 3.312 1.482 5.35l.093.396c.432 1.86.883 3.793 1.413 5.287.282.794.623 1.573 1.061 2.177.415.573 1.158 1.311 2.301 1.311 1.14 0 1.885-.735 2.302-1.304.442-.604.788-1.381 1.076-2.176.552-1.524 1.022-3.503 1.471-5.397l.07-.29c.484-2.038.95-3.953 1.491-5.36.25-.65.486-1.105.69-1.386.193.28.415.726.65 1.366.515 1.407.948 3.321 1.407 5.365l.015.067c.442 1.963.91 4.046 1.495 5.64.293.8.653 1.587 1.124 2.198.462.6 1.232 1.277 2.357 1.277 1.13 0 1.897-.683 2.354-1.288.464-.614.812-1.403 1.094-2.203.541-1.537.972-3.53 1.383-5.427l.058-.275c.442-2.041.867-3.948 1.39-5.344.114-.304.226-.563.332-.78a13.632 13.632 0 011.248 5.706c0 7.89-6.731 14.287-15.036 14.287-8.304 0-15.036-6.397-15.036-14.287 0-2.075.466-4.047 1.303-5.826zM18.77.607C8.805.608.727 8.283.727 17.75S8.805 34.895 18.77 34.895c9.966 0 18.043-7.676 18.043-17.144C36.813 8.283 28.736.608 18.77.608zm.344 10.602l-.01.007a.045.045 0 01.01-.007zm-.416.002a.041.041 0 01-.01-.008l.01.008zm7.02 13.35l.01-.007a.045.045 0 01-.01.007zm.437-.011l.01.007-.01-.007zm-14.664.037s.004-.005.013-.01a.066.066 0 01-.013.01zm.609-.008a.06.06 0 01.013.01c0 .001-.005-.002-.013-.01z" fill="#81818B"/><path d="M46.776 27.9l-4.375-14.22h3.832l2.596 10.235 3.017-10.235h4.285l3.017 10.235 2.625-10.235h3.833L61.2 27.9h-4.013l-3.199-10.636L50.79 27.9h-4.014zm24.454.345c-1.288 0-2.344-.192-3.17-.574-.823-.401-1.437-.927-1.84-1.577a4.006 4.006 0 01-.603-2.15c0-1.319.543-2.39 1.63-3.211 1.085-.822 2.716-1.233 4.888-1.233h3.802v-.344c0-.975-.292-1.691-.875-2.15-.584-.459-1.308-.688-2.173-.688-.784 0-1.469.181-2.052.544-.583.345-.945.86-1.086 1.549h-3.772c.1-1.032.463-1.93 1.086-2.695.644-.765 1.469-1.348 2.474-1.75 1.007-.42 2.133-.63 3.38-.63 2.133 0 3.812.506 5.04 1.52 1.227 1.013 1.84 2.446 1.84 4.3v8.745h-3.29l-.361-2.294c-.442.765-1.066 1.395-1.87 1.893-.785.496-1.801.745-3.049.745zm.874-2.867c1.107 0 1.962-.345 2.565-1.032.624-.689 1.017-1.54 1.178-2.552h-3.29c-1.026 0-1.76.181-2.203.545-.442.343-.663.774-.663 1.29 0 .554.221.984.663 1.29.443.305 1.026.459 1.75.459zM85.88 27.9l-5.492-14.22h4.043l3.802 10.752 3.802-10.752h4.044L90.557 27.9h-4.678zm17.963.345c-1.509 0-2.846-.306-4.013-.918a6.834 6.834 0 01-2.746-2.58c-.664-1.108-.996-2.39-.996-3.842 0-1.472.322-2.781.966-3.928a6.967 6.967 0 012.716-2.666c1.166-.65 2.534-.975 4.103-.975 1.469 0 2.766.306 3.893.918 1.126.611 2.002 1.452 2.625 2.522.644 1.052.966 2.227.966 3.527 0 .21-.01.43-.03.66 0 .229-.011.468-.031.716H99.92c.081 1.109.483 1.979 1.207 2.61.744.63 1.64.945 2.686.945.784 0 1.438-.162 1.961-.487a3.22 3.22 0 001.207-1.32h3.923a6.68 6.68 0 01-1.418 2.467c-.644.726-1.448 1.3-2.414 1.72-.945.42-2.022.63-3.229.63zm.03-11.927c-.945 0-1.78.258-2.505.774-.724.497-1.186 1.261-1.388 2.294h7.454c-.061-.937-.422-1.683-1.086-2.237-.665-.554-1.489-.831-2.475-.831zm9.525 11.582V7.259h3.863V27.9h-3.863zm13.874.345c-1.508 0-2.846-.306-4.013-.918a6.831 6.831 0 01-2.746-2.58c-.664-1.108-.995-2.39-.995-3.842 0-1.472.322-2.781.965-3.928a6.966 6.966 0 012.716-2.666c1.167-.65 2.534-.975 4.103-.975 1.469 0 2.767.306 3.893.918 1.126.611 2.002 1.452 2.625 2.522.644 1.052.966 2.227.966 3.527 0 .21-.01.43-.03.66 0 .229-.011.468-.031.716H123.35c.08 1.109.483 1.979 1.207 2.61.744.63 1.639.945 2.686.945.783 0 1.438-.162 1.96-.487a3.213 3.213 0 001.207-1.32h3.924a6.697 6.697 0 01-1.419 2.467c-.644.726-1.448 1.3-2.414 1.72-.945.42-2.022.63-3.229.63zm.03-11.927c-.945 0-1.78.258-2.504.774-.724.497-1.187 1.261-1.388 2.294h7.453c-.06-.937-.422-1.683-1.086-2.237-.664-.554-1.489-.831-2.475-.831zm15.712 11.927c-1.328 0-2.495-.201-3.501-.602-1.006-.421-1.811-.994-2.414-1.72a4.805 4.805 0 01-1.086-2.523h3.892c.121.553.443 1.032.966 1.433.543.382 1.237.573 2.082.573.845 0 1.459-.162 1.84-.487.403-.325.604-.698.604-1.118 0-.612-.281-1.023-.845-1.233-.563-.23-1.348-.45-2.354-.66a27.01 27.01 0 01-1.961-.487 10.363 10.363 0 01-1.84-.717 4.202 4.202 0 01-1.329-1.146c-.341-.478-.512-1.061-.512-1.75 0-1.26.523-2.322 1.569-3.182 1.066-.86 2.554-1.29 4.466-1.29 1.77 0 3.178.392 4.224 1.175 1.066.784 1.7 1.864 1.902 3.24h-3.652c-.221-1.05-1.056-1.577-2.504-1.577-.724 0-1.288.134-1.69.402-.382.267-.573.602-.573 1.003 0 .42.291.755.875 1.004.583.248 1.358.478 2.323.688a28.7 28.7 0 012.867.774c.885.267 1.589.678 2.112 1.233.523.535.785 1.309.785 2.322.02.88-.222 1.672-.724 2.38-.503.707-1.227 1.261-2.173 1.663-.945.401-2.062.602-3.349.602zm14.646 0c-1.328 0-2.495-.201-3.5-.602-1.006-.421-1.811-.994-2.414-1.72a4.797 4.797 0 01-1.086-2.523h3.892c.121.553.443 1.032.965 1.433.544.382 1.237.573 2.083.573.844 0 1.458-.162 1.84-.487.402-.325.604-.698.604-1.118 0-.612-.282-1.023-.845-1.233-.563-.23-1.348-.45-2.354-.66a26.882 26.882 0 01-1.961-.487 10.374 10.374 0 01-1.841-.717 4.198 4.198 0 01-1.328-1.146c-.342-.478-.512-1.061-.512-1.75 0-1.26.523-2.322 1.569-3.182 1.066-.86 2.554-1.29 4.465-1.29 1.771 0 3.179.392 4.225 1.175 1.066.784 1.699 1.864 1.901 3.24h-3.651c-.221-1.05-1.056-1.577-2.505-1.577-.724 0-1.287.134-1.69.402-.382.267-.573.602-.573 1.003 0 .42.292.755.875 1.004.584.248 1.358.478 2.323.688 1.047.23 2.002.487 2.868.774.885.267 1.589.678 2.112 1.233.522.535.784 1.309.784 2.322a3.85 3.85 0 01-.724 2.38c-.503.707-1.227 1.261-2.172 1.663-.946.401-2.063.602-3.35.602z" fill="#81818B"/></svg>