<svg width="114" height="123" viewBox="0 0 114 123" fill="none" xmlns="http://www.w3.org/2000/svg">
<rect x="0.386398" y="0.046875" width="9.2328" height="10" rx="4.6164" fill="#81818B" fill-opacity="0.2"/>
<rect x="15.1589" y="0.046875" width="9.2328" height="10" rx="4.6164" fill="#81818B" fill-opacity="0.2"/>
<rect x="29.9314" y="0.046875" width="9.2328" height="10" rx="4.6164" fill="#81818B" fill-opacity="0.2"/>
<rect x="44.7039" y="0.046875" width="9.2328" height="10" rx="4.6164" fill="#81818B" fill-opacity="0.2"/>
<rect x="59.4763" y="0.046875" width="9.2328" height="10" rx="4.6164" fill="#81818B" fill-opacity="0.2"/>
<rect x="74.2488" y="0.046875" width="9.2328" height="10" rx="4.6164" fill="#81818B" fill-opacity="0.2"/>
<rect x="89.0213" y="0.046875" width="9.2328" height="10" rx="4.6164" fill="#81818B" fill-opacity="0.2"/>
<rect x="103.794" y="0.046875" width="9.2328" height="10" rx="4.6164" fill="#81818B" fill-opacity="0.2"/>
<rect x="0.386398" y="16.0469" width="9.2328" height="10" rx="4.6164" fill="#81818B" fill-opacity="0.2"/>
<rect x="15.1589" y="16.0469" width="9.2328" height="10" rx="4.6164" fill="#81818B" fill-opacity="0.2"/>
<rect x="29.9314" y="16.0469" width="9.2328" height="10" rx="4.6164" fill="#81818B" fill-opacity="0.2"/>
<rect x="44.7039" y="16.0469" width="9.2328" height="10" rx="4.6164" fill="#81818B" fill-opacity="0.2"/>
<rect x="59.4763" y="16.0469" width="9.2328" height="10" rx="4.6164" fill="#81818B" fill-opacity="0.2"/>
<rect x="74.2488" y="16.0469" width="9.2328" height="10" rx="4.6164" fill="#81818B" fill-opacity="0.2"/>
<rect x="89.0213" y="16.0469" width="9.2328" height="10" rx="4.6164" fill="#81818B" fill-opacity="0.2"/>
<rect x="103.794" y="16.0469" width="9.2328" height="10" rx="4.6164" fill="#81818B" fill-opacity="0.2"/>
<rect x="0.386398" y="32.0469" width="9.2328" height="10" rx="4.6164" fill="#81818B" fill-opacity="0.2"/>
<rect x="15.1589" y="32.0469" width="9.2328" height="10" rx="4.6164" fill="#81818B" fill-opacity="0.2"/>
<rect x="29.9314" y="32.0469" width="9.2328" height="10" rx="4.6164" fill="#81818B" fill-opacity="0.2"/>
<rect x="44.7039" y="32.0469" width="9.2328" height="10" rx="4.6164" fill="#81818B" fill-opacity="0.2"/>
<rect x="59.4763" y="32.0469" width="9.2328" height="10" rx="4.6164" fill="#81818B" fill-opacity="0.2"/>
<rect x="74.2488" y="32.0469" width="9.2328" height="10" rx="4.6164" fill="#81818B" fill-opacity="0.2"/>
<rect x="89.0213" y="32.0469" width="9.2328" height="10" rx="4.6164" fill="#81818B" fill-opacity="0.2"/>
<rect x="103.794" y="32.0469" width="9.2328" height="10" rx="4.6164" fill="#81818B" fill-opacity="0.2"/>
<rect x="0.386398" y="48.0469" width="9.2328" height="10" rx="4.6164" fill="#81818B" fill-opacity="0.2"/>
<rect x="15.1589" y="48.0469" width="9.2328" height="10" rx="4.6164" fill="#81818B" fill-opacity="0.2"/>
<rect x="29.9314" y="48.0469" width="9.2328" height="10" rx="4.6164" fill="#81818B" fill-opacity="0.2"/>
<rect x="44.7039" y="48.0469" width="9.2328" height="10" rx="4.6164" fill="#81818B" fill-opacity="0.2"/>
<rect x="59.4763" y="48.0469" width="9.2328" height="10" rx="4.6164" fill="#81818B" fill-opacity="0.2"/>
<rect x="74.2488" y="48.0469" width="9.2328" height="10" rx="4.6164" fill="#81818B" fill-opacity="0.2"/>
<rect x="89.0213" y="48.0469" width="9.2328" height="10" rx="4.6164" fill="#81818B" fill-opacity="0.2"/>
<rect x="103.794" y="48.0469" width="9.2328" height="10" rx="4.6164" fill="#81818B" fill-opacity="0.2"/>
<rect x="0.386398" y="64.0469" width="9.2328" height="10" rx="4.6164" fill="#81818B" fill-opacity="0.2"/>
<rect x="15.1589" y="64.0469" width="9.2328" height="10" rx="4.6164" fill="#81818B" fill-opacity="0.2"/>
<rect x="29.9314" y="64.0469" width="9.2328" height="10" rx="4.6164" fill="#81818B" fill-opacity="0.2"/>
<rect x="44.7039" y="64.0469" width="9.2328" height="10" rx="4.6164" fill="#81818B" fill-opacity="0.2"/>
<rect x="59.4763" y="64.0469" width="9.2328" height="10" rx="4.6164" fill="#81818B" fill-opacity="0.2"/>
<rect x="74.2488" y="64.0469" width="9.2328" height="10" rx="4.6164" fill="#81818B" fill-opacity="0.2"/>
<rect x="89.0213" y="64.0469" width="9.2328" height="10" rx="4.6164" fill="#81818B" fill-opacity="0.2"/>
<rect x="103.794" y="64.0469" width="9.2328" height="10" rx="4.6164" fill="#81818B" fill-opacity="0.2"/>
<rect x="0.386398" y="80.0469" width="9.2328" height="10" rx="4.6164" fill="#81818B" fill-opacity="0.2"/>
<rect x="15.1589" y="80.0469" width="9.2328" height="10" rx="4.6164" fill="#81818B" fill-opacity="0.2"/>
<rect x="29.9314" y="80.0469" width="9.2328" height="10" rx="4.6164" fill="#81818B" fill-opacity="0.2"/>
<rect x="44.7039" y="80.0469" width="9.2328" height="10" rx="4.6164" fill="#81818B" fill-opacity="0.2"/>
<rect x="59.4763" y="80.0469" width="9.2328" height="10" rx="4.6164" fill="#81818B" fill-opacity="0.2"/>
<rect x="74.2488" y="80.0469" width="9.2328" height="10" rx="4.6164" fill="#81818B" fill-opacity="0.2"/>
<rect x="89.0213" y="80.0469" width="9.2328" height="10" rx="4.6164" fill="#81818B" fill-opacity="0.2"/>
<rect x="103.794" y="80.0469" width="9.2328" height="10" rx="4.6164" fill="#81818B" fill-opacity="0.2"/>
<rect x="0.386398" y="96.0469" width="9.2328" height="10" rx="4.6164" fill="#81818B" fill-opacity="0.2"/>
<rect x="15.1589" y="96.0469" width="9.2328" height="10" rx="4.6164" fill="#81818B" fill-opacity="0.2"/>
<rect x="29.9314" y="96.0469" width="9.2328" height="10" rx="4.6164" fill="#81818B" fill-opacity="0.2"/>
<rect x="44.7039" y="96.0469" width="9.2328" height="10" rx="4.6164" fill="#81818B" fill-opacity="0.2"/>
<rect x="59.4763" y="96.0469" width="9.2328" height="10" rx="4.6164" fill="#81818B" fill-opacity="0.2"/>
<rect x="74.2488" y="96.0469" width="9.2328" height="10" rx="4.6164" fill="#81818B" fill-opacity="0.2"/>
<rect x="89.0213" y="96.0469" width="9.2328" height="10" rx="4.6164" fill="#81818B" fill-opacity="0.2"/>
<rect x="103.794" y="96.0469" width="9.2328" height="10" rx="4.6164" fill="#81818B" fill-opacity="0.2"/>
<rect x="0.386398" y="112.047" width="9.2328" height="10" rx="4.6164" fill="#81818B" fill-opacity="0.2"/>
<rect x="15.1589" y="112.047" width="9.2328" height="10" rx="4.6164" fill="#81818B" fill-opacity="0.2"/>
<rect x="29.9314" y="112.047" width="9.2328" height="10" rx="4.6164" fill="#81818B" fill-opacity="0.2"/>
<rect x="44.7039" y="112.047" width="9.2328" height="10" rx="4.6164" fill="#81818B" fill-opacity="0.2"/>
<rect x="59.4763" y="112.047" width="9.2328" height="10" rx="4.6164" fill="#81818B" fill-opacity="0.2"/>
<rect x="74.2488" y="112.047" width="9.2328" height="10" rx="4.6164" fill="#81818B" fill-opacity="0.2"/>
<rect x="89.0213" y="112.047" width="9.2328" height="10" rx="4.6164" fill="#81818B" fill-opacity="0.2"/>
<rect x="103.794" y="112.047" width="9.2328" height="10" rx="4.6164" fill="#81818B" fill-opacity="0.2"/>
</svg>
