<svg width="109" height="123" fill="none" xmlns="http://www.w3.org/2000/svg"><rect x=".411" y=".484" width="8.846" height="10" rx="4.423" fill="#81818B" fill-opacity=".2"/><rect x="14.565" y=".484" width="8.846" height="10" rx="4.423" fill="#81818B" fill-opacity=".2"/><rect x="28.719" y=".484" width="8.846" height="10" rx="4.423" fill="#81818B" fill-opacity=".2"/><rect x="42.873" y=".484" width="8.846" height="10" rx="4.423" fill="#81818B" fill-opacity=".2"/><rect x="57.026" y=".484" width="8.846" height="10" rx="4.423" fill="#81818B" fill-opacity=".2"/><rect x="71.18" y=".484" width="8.846" height="10" rx="4.423" fill="#81818B" fill-opacity=".2"/><rect x="85.334" y=".484" width="8.846" height="10" rx="4.423" fill="#81818B" fill-opacity=".2"/><rect x="99.488" y=".484" width="8.846" height="10" rx="4.423" fill="#81818B" fill-opacity=".2"/><rect x=".411" y="16.484" width="8.846" height="10" rx="4.423" fill="#81818B" fill-opacity=".2"/><rect x="14.565" y="16.484" width="8.846" height="10" rx="4.423" fill="#81818B" fill-opacity=".2"/><rect x="28.719" y="16.484" width="8.846" height="10" rx="4.423" fill="#81818B" fill-opacity=".2"/><rect x="42.873" y="16.484" width="8.846" height="10" rx="4.423" fill="#81818B" fill-opacity=".2"/><rect x="57.026" y="16.484" width="8.846" height="10" rx="4.423" fill="#81818B" fill-opacity=".2"/><rect x="71.18" y="16.484" width="8.846" height="10" rx="4.423" fill="#81818B" fill-opacity=".2"/><rect x="85.334" y="16.484" width="8.846" height="10" rx="4.423" fill="#81818B" fill-opacity=".2"/><rect x="99.488" y="16.484" width="8.846" height="10" rx="4.423" fill="#81818B" fill-opacity=".2"/><rect x=".411" y="32.484" width="8.846" height="10" rx="4.423" fill="#81818B" fill-opacity=".2"/><rect x="14.565" y="32.484" width="8.846" height="10" rx="4.423" fill="#81818B" fill-opacity=".2"/><rect x="28.719" y="32.484" width="8.846" height="10" rx="4.423" fill="#81818B" fill-opacity=".2"/><rect x="42.873" y="32.484" width="8.846" height="10" rx="4.423" fill="#81818B" fill-opacity=".2"/><rect x="57.026" y="32.484" width="8.846" height="10" rx="4.423" fill="#81818B" fill-opacity=".2"/><rect x="71.18" y="32.484" width="8.846" height="10" rx="4.423" fill="#81818B" fill-opacity=".2"/><rect x="85.334" y="32.484" width="8.846" height="10" rx="4.423" fill="#81818B" fill-opacity=".2"/><rect x="99.488" y="32.484" width="8.846" height="10" rx="4.423" fill="#81818B" fill-opacity=".2"/><rect x=".411" y="48.484" width="8.846" height="10" rx="4.423" fill="#81818B" fill-opacity=".2"/><rect x="14.565" y="48.484" width="8.846" height="10" rx="4.423" fill="#81818B" fill-opacity=".2"/><rect x="28.719" y="48.484" width="8.846" height="10" rx="4.423" fill="#81818B" fill-opacity=".2"/><rect x="42.873" y="48.484" width="8.846" height="10" rx="4.423" fill="#81818B" fill-opacity=".2"/><rect x="57.026" y="48.484" width="8.846" height="10" rx="4.423" fill="#81818B" fill-opacity=".2"/><rect x="71.18" y="48.484" width="8.846" height="10" rx="4.423" fill="#81818B" fill-opacity=".2"/><rect x="85.334" y="48.484" width="8.846" height="10" rx="4.423" fill="#81818B" fill-opacity=".2"/><rect x="99.488" y="48.484" width="8.846" height="10" rx="4.423" fill="#81818B" fill-opacity=".2"/><rect x=".411" y="64.484" width="8.846" height="10" rx="4.423" fill="#81818B" fill-opacity=".2"/><rect x="14.565" y="64.484" width="8.846" height="10" rx="4.423" fill="#81818B" fill-opacity=".2"/><rect x="28.719" y="64.484" width="8.846" height="10" rx="4.423" fill="#81818B" fill-opacity=".2"/><rect x="42.873" y="64.484" width="8.846" height="10" rx="4.423" fill="#81818B" fill-opacity=".2"/><rect x="57.026" y="64.484" width="8.846" height="10" rx="4.423" fill="#81818B" fill-opacity=".2"/><rect x="71.18" y="64.484" width="8.846" height="10" rx="4.423" fill="#81818B" fill-opacity=".2"/><rect x="85.334" y="64.484" width="8.846" height="10" rx="4.423" fill="#81818B" fill-opacity=".2"/><rect x="99.488" y="64.484" width="8.846" height="10" rx="4.423" fill="#81818B" fill-opacity=".2"/><rect x=".411" y="80.484" width="8.846" height="10" rx="4.423" fill="#81818B" fill-opacity=".2"/><rect x="14.565" y="80.484" width="8.846" height="10" rx="4.423" fill="#81818B" fill-opacity=".2"/><rect x="28.719" y="80.484" width="8.846" height="10" rx="4.423" fill="#81818B" fill-opacity=".2"/><rect x="42.873" y="80.484" width="8.846" height="10" rx="4.423" fill="#81818B" fill-opacity=".2"/><rect x="57.026" y="80.484" width="8.846" height="10" rx="4.423" fill="#81818B" fill-opacity=".2"/><rect x="71.18" y="80.484" width="8.846" height="10" rx="4.423" fill="#81818B" fill-opacity=".2"/><rect x="85.334" y="80.484" width="8.846" height="10" rx="4.423" fill="#81818B" fill-opacity=".2"/><rect x="99.488" y="80.484" width="8.846" height="10" rx="4.423" fill="#81818B" fill-opacity=".2"/><rect x=".411" y="96.484" width="8.846" height="10" rx="4.423" fill="#81818B" fill-opacity=".2"/><rect x="14.565" y="96.484" width="8.846" height="10" rx="4.423" fill="#81818B" fill-opacity=".2"/><rect x="28.719" y="96.484" width="8.846" height="10" rx="4.423" fill="#81818B" fill-opacity=".2"/><rect x="42.873" y="96.484" width="8.846" height="10" rx="4.423" fill="#81818B" fill-opacity=".2"/><rect x="57.026" y="96.484" width="8.846" height="10" rx="4.423" fill="#81818B" fill-opacity=".2"/><rect x="71.18" y="96.484" width="8.846" height="10" rx="4.423" fill="#81818B" fill-opacity=".2"/><rect x="85.334" y="96.484" width="8.846" height="10" rx="4.423" fill="#81818B" fill-opacity=".2"/><rect x="99.488" y="96.484" width="8.846" height="10" rx="4.423" fill="#81818B" fill-opacity=".2"/><rect x=".411" y="112.484" width="8.846" height="10" rx="4.423" fill="#81818B" fill-opacity=".2"/><rect x="14.565" y="112.484" width="8.846" height="10" rx="4.423" fill="#81818B" fill-opacity=".2"/><rect x="28.719" y="112.484" width="8.846" height="10" rx="4.423" fill="#81818B" fill-opacity=".2"/><rect x="42.873" y="112.484" width="8.846" height="10" rx="4.423" fill="#81818B" fill-opacity=".2"/><rect x="57.026" y="112.484" width="8.846" height="10" rx="4.423" fill="#81818B" fill-opacity=".2"/><rect x="71.18" y="112.484" width="8.846" height="10" rx="4.423" fill="#81818B" fill-opacity=".2"/><rect x="85.334" y="112.484" width="8.846" height="10" rx="4.423" fill="#81818B" fill-opacity=".2"/><rect x="99.488" y="112.484" width="8.846" height="10" rx="4.423" fill="#81818B" fill-opacity=".2"/></svg>