<svg width="137" height="34" fill="none" xmlns="http://www.w3.org/2000/svg"><path d="M50.605 12.655a3.403 3.403 0 00-1.505-1.45c-.639-.347-1.396-.52-2.272-.52-1.514 0-2.727.502-3.64 1.505-.912.985-1.368 2.308-1.368 3.968 0 1.77.475 3.157 1.423 4.16.967.985 2.29 1.478 3.968 1.478 1.15 0 2.117-.292 2.901-.876.803-.584 1.387-1.423 1.752-2.518h-5.939v-3.448h10.18v4.351c-.346 1.168-.939 2.254-1.778 3.257-.821 1.004-1.87 1.816-3.147 2.436-1.277.62-2.719.93-4.324.93-1.898 0-3.595-.41-5.09-1.231a9.086 9.086 0 01-3.476-3.476c-.821-1.478-1.232-3.165-1.232-5.063 0-1.897.41-3.585 1.232-5.063a8.844 8.844 0 013.475-3.475c1.478-.84 3.166-1.259 5.063-1.259 2.3 0 4.233.557 5.802 1.67 1.587 1.112 2.636 2.654 3.147 4.624h-5.172zm12.773.41a6.044 6.044 0 012.052-1.97c.821-.492 1.733-.738 2.737-.738v4.953H66.88c-1.167 0-2.043.255-2.627.766-.584.493-.876 1.369-.876 2.627v7.088h-4.68v-15.27h4.68v2.545zM77.355 26.01c-1.496 0-2.847-.319-4.05-.957a7.13 7.13 0 01-2.82-2.737c-.675-1.186-1.012-2.573-1.012-4.16 0-1.569.347-2.946 1.04-4.132a7.03 7.03 0 012.846-2.764c1.204-.639 2.554-.958 4.05-.958s2.846.32 4.05.958a7.032 7.032 0 012.847 2.764c.693 1.186 1.04 2.563 1.04 4.132 0 1.57-.356 2.956-1.068 4.16a7.039 7.039 0 01-2.873 2.737c-1.204.638-2.554.957-4.05.957zm0-4.05c.894 0 1.65-.328 2.271-.985.638-.657.958-1.597.958-2.819s-.31-2.162-.93-2.819a2.925 2.925 0 00-2.245-.985c-.912 0-1.669.329-2.271.985-.602.639-.903 1.579-.903 2.82 0 1.221.292 2.161.876 2.818.602.657 1.35.985 2.244.985zm32.394-11.44l-4.133 15.271h-5.172l-2.408-9.906-2.49 9.906H90.4l-4.16-15.27h4.68l2.162 10.92 2.572-10.92h4.953l2.6 10.864 2.135-10.864h4.406zm9.447 3.887h-2.517V25.79h-4.68V14.407h-1.697V10.52h1.697v-.438c0-1.88.538-3.302 1.615-4.27 1.076-.984 2.654-1.477 4.734-1.477.346 0 .602.01.766.027V8.33c-.893-.054-1.523.073-1.888.384-.365.31-.547.866-.547 1.669v.137h2.517v3.886zm17.798-3.886l-9.578 22.523h-5.036l3.503-7.772-6.212-14.751h5.227l3.531 9.55 3.502-9.55h5.063z" fill="#fff"/><path d="M16.157 7.898A7.368 7.368 0 0123.524.53h7.368v7.368a7.368 7.368 0 11-14.735 0z" fill="#FF6D35"/><path d="M23.524 32.943a7.368 7.368 0 01-7.368-7.368v-7.368h7.368a7.368 7.368 0 010 14.736z" fill="#5CC97B"/><path d="M13.835 15.918C13.835 7.741 7.709 1.113.15 1.113v24.174c0 4.088 3.064 7.403 6.842 7.403 3.779 0 6.842-3.314 6.842-7.403v-9.369z" fill="#3D96F4"/></svg>